<svg width="130" height="130" viewBox="0 0 130 130" fill="none" xmlns="http://www.w3.org/2000/svg">
<g clip-path="url(#clip0_499_916)">
<path d="M8.43163 31.8855C7.53431 34.1161 7.0734 36.4987 7.07399 38.9036C7.07319 39.2379 7.13833 39.5691 7.26567 39.878C7.39301 40.187 7.58004 40.4678 7.81601 40.7041C8.05199 40.9405 8.33226 41.1279 8.64073 41.2554C8.9492 41.383 9.27978 41.4482 9.6135 41.4474H42.8575C43.5088 41.4155 44.1228 41.1339 44.5725 40.6609C45.0222 40.1879 45.273 39.5598 45.273 38.9067C45.273 38.2535 45.0222 37.6254 44.5725 37.1524C44.1228 36.6794 43.5088 36.3978 42.8575 36.3659H12.3833C12.8904 33.6501 14.2001 31.1494 16.1426 29.1879C18.0851 27.2264 20.5709 25.8943 23.2779 25.3645C25.985 24.8346 28.7885 25.1312 31.3253 26.216C33.8621 27.3007 36.0152 29.1236 37.5057 31.4483C37.6923 31.7352 37.9342 31.9818 38.2174 32.1737C38.5005 32.3655 38.819 32.4987 39.1543 32.5654C39.4879 32.6358 39.8324 32.6377 40.1668 32.5709C40.5012 32.5041 40.8186 32.3701 41.0998 32.1769C42.3346 31.3109 43.7828 30.8007 45.2869 30.7017C46.791 30.6027 48.2934 30.9188 49.6307 31.6154C50.968 32.3121 52.089 33.3628 52.8717 34.6531C53.6544 35.9435 54.0689 37.4241 54.0701 38.934C54.0701 39.268 54.1358 39.5988 54.2634 39.9075C54.3911 40.2161 54.5781 40.4965 54.8139 40.7327C55.0497 40.9689 55.3297 41.1563 55.6378 41.2841C55.9459 41.412 56.2761 41.4778 56.6096 41.4778C56.9431 41.4778 57.2734 41.412 57.5815 41.2841C57.8896 41.1563 58.1695 40.9689 58.4053 40.7327C58.6412 40.4965 58.8282 40.2161 58.9558 39.9075C59.0835 39.5988 59.1491 39.268 59.1491 38.934C59.1491 37.18 58.8043 35.4432 58.1342 33.8227C57.4641 32.2023 56.4819 30.7299 55.2437 29.4896C54.0056 28.2494 52.5356 27.2655 50.9179 26.5943C49.3001 25.9231 47.5662 25.5776 45.8152 25.5776C43.931 25.5857 42.0707 25.9998 40.3604 26.7918C37.4837 23.3333 33.4648 21.0221 29.0326 20.2776C29.0934 19.7394 29.1238 19.1982 29.1235 18.6566C29.1195 16.0459 28.4152 13.4842 27.0844 11.2395C25.7536 8.99475 23.8452 7.1494 21.5586 5.89642C19.2721 4.64344 16.6915 4.02886 14.0866 4.11694C11.4818 4.20502 8.94841 4.99253 6.75143 6.39712C4.55446 7.8017 2.77459 9.77177 1.59795 12.1013C0.421315 14.4308 -0.108862 17.0342 0.0628623 19.6392C0.234587 22.2443 1.1019 24.7553 2.57412 26.9096C4.04633 29.0639 6.06935 30.7824 8.43163 31.8855ZM14.5471 9.15535C17.0638 9.15535 19.4777 10.156 21.2585 11.9375C23.0392 13.7189 24.0413 16.1356 24.0445 18.6566C24.0448 19.1484 24.0083 19.6395 23.9354 20.1258C21.3844 20.3874 18.9143 21.1719 16.6788 22.4304C14.4434 23.6889 12.4902 25.3946 10.9408 27.4414C8.90854 26.6027 7.23012 25.0831 6.19241 23.1422C5.15471 21.2013 4.82214 18.9596 5.25156 16.8003C5.68097 14.6411 6.84571 12.6982 8.5467 11.3038C10.2477 9.90934 12.3794 9.14994 14.5774 9.15535H14.5471Z" fill="#096285"/>
<path d="M32.3906 55.7386C28.5904 56.4611 26.1903 58.0032 24.6811 59.6302C23.178 58.0032 20.7779 56.4611 16.9717 55.7386C16.6399 55.6688 16.2976 55.6663 15.9648 55.7311C15.632 55.796 15.3156 55.9269 15.0341 56.1162C14.7527 56.3054 14.5119 56.5493 14.326 56.8332C14.1401 57.1172 14.0129 57.4356 13.9518 57.7696C13.8906 58.1036 13.8969 58.4465 13.9702 58.778C14.0435 59.1096 14.1823 59.4231 14.3785 59.7C14.5746 59.977 14.8242 60.2118 15.1124 60.3906C15.4006 60.5694 15.7216 60.6886 16.0565 60.7412C18.4021 61.1723 20.1415 62.0708 21.2264 63.4004C21.6723 63.9281 21.9915 64.5512 22.1598 65.2217C22.2156 65.839 22.4994 66.4133 22.9557 66.8321C23.4119 67.2509 24.0077 67.4842 24.6266 67.4862H24.6811C25.3068 67.474 25.9068 67.2345 26.3695 66.8124C26.8321 66.3903 27.126 65.8142 27.1964 65.1913C27.1964 65.1913 27.7661 61.7612 33.2997 60.7412C33.9478 60.6049 34.517 60.2204 34.8861 59.6697C35.2552 59.119 35.395 58.4457 35.2756 57.7932C35.1563 57.1408 34.7872 56.5609 34.2472 56.1771C33.7071 55.7933 33.0387 55.636 32.3845 55.7386H32.3906Z" fill="#096285"/>
<path d="M122.558 3.65777e-06H120.067C118.26 -0.00170668 116.514 0.656644 115.157 1.85168C113.795 0.670049 112.051 0.0230141 110.248 0.030359H96.8111L90.9139 3.65777e-06C90.7928 -0.0091158 90.6713 -0.0091158 90.5502 3.65777e-06H72.6767C70.3742 0.00321586 68.1669 0.920837 66.5388 2.55168C64.9107 4.18252 63.9946 6.3935 63.9914 8.69986V12.7493C63.9886 13.8924 64.2116 15.0248 64.6474 16.0814C65.0832 17.1379 65.7233 18.0976 66.5309 18.9053L71.9069 24.2843C72.242 24.6199 72.5076 25.0184 72.6886 25.457C72.8695 25.8956 72.9623 26.3657 72.9615 26.8402V51.2642H67.834C63.5657 51.2658 59.4727 52.9654 56.4551 55.9892C53.4375 59.013 51.7424 63.1135 51.7424 67.389C51.744 67.8642 51.6511 68.335 51.4689 68.7739C51.2868 69.2128 51.0192 69.6108 50.6817 69.9449L46.0633 74.565C43.9871 76.6325 42.3415 79.0925 41.222 81.8022C40.1025 84.5119 39.5314 87.4173 39.5418 90.3498V92.2015H2.75826C2.09147 92.203 1.45189 92.4665 0.977005 92.9353C0.502123 93.4042 0.229862 94.041 0.21875 94.7088V127.438C0.21875 128.113 0.486305 128.76 0.962556 129.237C1.43881 129.714 2.08474 129.982 2.75826 129.982H127.461C127.795 129.983 128.125 129.917 128.434 129.79C128.742 129.662 129.023 129.475 129.259 129.239C129.494 129.002 129.682 128.721 129.809 128.412C129.936 128.103 130.001 127.772 130.001 127.438V107.859V7.45529C129.997 5.47901 129.212 3.58459 127.817 2.18715C126.422 0.789711 124.531 0.00321451 122.558 3.65777e-06ZM81.5862 105.315H66.7976V90.7444C66.7976 88.78 67.5766 86.8961 68.9633 85.5071C70.35 84.118 72.2308 83.3377 74.1919 83.3377C76.153 83.3377 78.0337 84.118 79.4204 85.5071C80.8071 86.8961 81.5862 88.78 81.5862 90.7444V105.315ZM49.6635 78.1591L54.2758 73.539C55.0851 72.7335 55.7268 71.7751 56.1638 70.7195C56.6007 69.6638 56.8243 68.5318 56.8214 67.389C56.8206 65.9401 57.1049 64.5053 57.6581 63.1666C58.2112 61.8279 59.0224 60.6115 60.0451 59.587C61.0679 58.5625 62.2822 57.75 63.6187 57.1959C64.9552 56.6418 66.3876 56.357 67.834 56.3578H78.7436C82.0122 56.361 85.146 57.6631 87.4572 59.9782C89.7684 62.2933 91.0683 65.4323 91.0715 68.7064C91.0705 69.8498 91.2948 70.9822 91.7316 72.0386C92.1685 73.095 92.8092 74.0546 93.617 74.8625L98.8052 80.0532C99.1402 80.3888 99.4058 80.7873 99.5868 81.2259C99.7677 81.6645 99.8605 82.1346 99.8597 82.6092C99.8597 83.2838 100.127 83.9308 100.604 84.4079C101.08 84.8849 101.726 85.1529 102.399 85.1529C103.073 85.1529 103.719 84.8849 104.195 84.4079C104.671 83.9308 104.939 83.2838 104.939 82.6092C104.943 81.4662 104.72 80.3339 104.283 79.2781C103.846 78.2223 103.203 77.2641 102.393 76.4592L97.2111 71.2623C96.8718 70.9294 96.6037 70.5307 96.4232 70.0906C96.2431 69.6514 96.1505 69.1812 96.1505 68.7064C96.1473 64.0909 94.3192 59.6645 91.0661 56.3957C87.813 53.1269 83.3999 51.2818 78.7921 51.2642H78.0709V26.8342C78.0741 25.6913 77.8507 24.5592 77.4137 23.5035C76.9768 22.4478 76.3349 21.4895 75.5253 20.6842L70.125 15.2991C69.7935 14.9635 69.5317 14.5653 69.3548 14.1276C69.178 13.6899 69.0895 13.2214 69.0947 12.7493V8.712C69.0947 7.74591 69.4778 6.81939 70.1598 6.13626C70.8418 5.45313 71.7667 5.06935 72.7312 5.06935H86.9864C85.6612 6.81414 84.9475 8.94809 84.956 11.1404V26.4395C84.9524 27.7548 85.2093 29.0576 85.7118 30.2727C86.2143 31.4878 86.9524 32.591 87.8834 33.5184L93.6898 39.3406C94.1501 39.7957 94.5149 40.3385 94.7626 40.937C95.0103 41.5354 95.136 42.1775 95.1323 42.8254V44.3735C95.1323 45.0482 95.3998 45.6952 95.8761 46.1722C96.3523 46.6493 96.9982 46.9173 97.6718 46.9173C98.3453 46.9173 98.9912 46.6493 99.4675 46.1722C99.9437 45.6952 100.211 45.0482 100.211 44.3735V42.8254C100.214 41.5093 99.9573 40.2057 99.4548 38.9897C98.9524 37.7737 98.2146 36.6694 97.2839 35.7404L91.4775 29.9243C91.0172 29.4692 90.6525 28.9264 90.4047 28.328C90.157 27.7295 90.0313 27.0874 90.0351 26.4395V11.1465C90.0313 10.4986 90.157 9.85656 90.4047 9.25808C90.6525 8.65961 91.0172 8.11683 91.4775 7.6617L91.9988 7.13959C92.6469 6.48713 93.4176 5.96984 94.2665 5.61762C95.1154 5.2654 96.0256 5.08524 96.9445 5.08757H110.278C110.906 5.08756 111.508 5.33683 111.952 5.78069C112.396 6.22455 112.647 6.82677 112.648 7.45529V29.5358C112.648 30.2105 112.916 30.8575 113.392 31.3345C113.868 31.8116 114.514 32.0796 115.188 32.0796C115.861 32.0796 116.507 31.8116 116.983 31.3345C117.46 30.8575 117.727 30.2105 117.727 29.5358V7.45529C117.729 6.82782 117.978 6.22651 118.421 5.78283C118.864 5.33914 119.465 5.08917 120.091 5.08757H122.582C123.208 5.08917 123.809 5.33914 124.252 5.78283C124.695 6.22651 124.944 6.82782 124.946 7.45529V46.0613H121.036C119.895 46.0597 118.765 46.2836 117.71 46.7201C116.655 47.1567 115.697 47.7974 114.889 48.6055C114.082 49.4136 113.442 50.3732 113.005 51.4295C112.569 52.4858 112.344 53.6179 112.345 54.7611C112.352 55.8884 112.134 57.0057 111.706 58.048C111.277 59.0902 110.645 60.0367 109.848 60.8322C109.595 61.0642 109.392 61.3451 109.251 61.6579C109.11 61.9706 109.033 62.3088 109.025 62.652C109.018 62.9953 109.08 63.3365 109.208 63.6551C109.336 63.9737 109.526 64.2631 109.769 64.5058C110.011 64.7486 110.3 64.9397 110.618 65.0677C110.936 65.1956 111.277 65.2577 111.619 65.2503C111.962 65.2429 112.3 65.166 112.612 65.0244C112.924 64.8828 113.204 64.6793 113.436 64.4263C114.703 63.1628 115.708 61.6602 116.391 60.0053C117.075 58.3505 117.424 56.5763 117.418 54.7854C117.418 53.8193 117.801 52.8928 118.483 52.2097C119.165 51.5265 120.09 51.1428 121.055 51.1428H124.94V105.315H86.6713V90.7444C86.6713 87.4307 85.3571 84.2527 83.0179 81.9096C80.6787 79.5665 77.5061 78.2501 74.198 78.2501C70.8898 78.2501 67.7172 79.5665 65.378 81.9096C63.0388 84.2527 61.7246 87.4307 61.7246 90.7444V105.315H49.6029C48.2869 105.313 47.0252 104.789 46.0947 103.857C45.1641 102.925 44.6406 101.661 44.639 100.343V90.3316C44.6317 88.0707 45.072 85.8307 45.9344 83.7413C46.7968 81.652 48.0643 79.7546 49.6635 78.1591ZM124.922 124.906H38.9296L40.8631 122.97C41.1044 122.735 41.2967 122.454 41.4289 122.145C41.5611 121.835 41.6304 121.502 41.633 121.165C41.6356 120.828 41.5713 120.493 41.4439 120.182C41.3165 119.87 41.1285 119.586 40.8908 119.348C40.6531 119.109 40.3705 118.921 40.0594 118.792C39.7482 118.664 39.4148 118.599 39.0784 118.601C38.742 118.603 38.4093 118.672 38.0998 118.804C37.7902 118.936 37.5098 119.128 37.275 119.37L35.2083 121.422L33.293 119.503C32.8132 119.026 32.1637 118.759 31.4874 118.761C30.8111 118.763 30.1634 119.035 29.6868 119.515C29.2102 119.996 28.9437 120.646 28.946 121.324C28.9482 122.001 29.2191 122.65 29.6989 123.128L31.5172 124.912H5.29777V113.638H24.6926C25.3661 113.638 26.0121 113.37 26.4883 112.893C26.9646 112.416 27.2321 111.769 27.2321 111.095C27.2321 110.42 26.9646 109.773 26.4883 109.296C26.0121 108.819 25.3661 108.551 24.6926 108.551H21.8198L23.9774 106.39C24.2134 106.153 24.4006 105.873 24.5283 105.564C24.6561 105.255 24.7218 104.924 24.7218 104.589C24.7218 104.255 24.6561 103.924 24.5283 103.615C24.4006 103.306 24.2134 103.026 23.9774 102.789C23.7414 102.553 23.4613 102.366 23.1529 102.238C22.8446 102.11 22.5141 102.044 22.1804 102.044C21.8466 102.044 21.5162 102.11 21.2078 102.238C20.8995 102.366 20.6193 102.553 20.3833 102.789L18.3166 104.86L16.4074 102.941C16.173 102.699 15.893 102.507 15.5836 102.374C15.2742 102.242 14.9417 102.173 14.6053 102.17C14.2689 102.167 13.9353 102.232 13.624 102.359C13.3126 102.487 13.0297 102.675 12.7916 102.913C12.5536 103.151 12.3651 103.435 12.2371 103.746C12.1092 104.058 12.0443 104.392 12.0464 104.729C12.0484 105.066 12.1172 105.399 12.2489 105.709C12.3805 106.019 12.5724 106.3 12.8133 106.535L14.8194 108.551H5.29777V97.2708H39.5479V100.343C39.5543 103.009 40.6144 105.564 42.4964 107.449C44.3784 109.334 46.9292 110.396 49.5907 110.403H124.922V124.906Z" fill="#096285"/>
<path d="M100.102 97.198C100.301 97.6772 100.643 98.0835 101.081 98.3621C101.518 98.6406 102.031 98.778 102.548 98.7557C103.066 98.7334 103.565 98.5524 103.977 98.2373C104.389 97.9221 104.695 97.4879 104.853 96.9933C105.011 96.4986 105.013 95.9674 104.86 95.4712C104.707 94.975 104.406 94.5378 103.997 94.2186C103.588 93.8994 103.091 93.7136 102.573 93.6862C102.056 93.6587 101.542 93.7911 101.102 94.0653C100.595 94.3869 100.216 94.877 100.034 95.4497C99.8508 96.0224 99.8749 96.6413 100.102 97.198Z" fill="#096285"/>
<path d="M72.9609 117.658C72.9625 118.332 73.2306 118.978 73.7065 119.455C74.1824 119.931 74.8274 120.2 75.5005 120.201H106.544C107.218 120.201 107.864 119.933 108.34 119.456C108.816 118.979 109.084 118.332 109.084 117.658C109.084 116.983 108.816 116.336 108.34 115.859C107.864 115.382 107.218 115.114 106.544 115.114H75.5005C74.8274 115.115 74.1824 115.384 73.7065 115.861C73.2306 116.337 72.9625 116.983 72.9609 117.658Z" fill="#096285"/>
<path d="M66.6699 116.686C66.47 116.201 66.1252 115.79 65.6829 115.509C65.2406 115.228 64.7224 115.091 64.1992 115.116C63.676 115.142 63.1735 115.329 62.7606 115.652C62.3476 115.974 62.0444 116.417 61.8924 116.919C61.7405 117.421 61.7472 117.958 61.9118 118.456C62.0763 118.954 62.3906 119.389 62.8115 119.702C63.2325 120.014 63.7395 120.188 64.2632 120.2C64.7868 120.213 65.3014 120.062 65.7366 119.77C66.2185 119.439 66.5734 118.953 66.743 118.392C66.9127 117.832 66.8869 117.23 66.6699 116.686Z" fill="#096285"/>
</g>
<defs>
<clipPath id="clip0_499_916">
<rect width="130" height="130" fill="white"/>
</clipPath>
</defs>
</svg>
