<svg width="130" height="130" viewBox="0 0 130 130" fill="none" xmlns="http://www.w3.org/2000/svg">
<g clip-path="url(#clip0_499_939)">
<path d="M106.392 35.5496C105.866 35.5496 105.352 35.6985 104.915 35.9775C104.477 36.2565 104.136 36.6531 103.935 37.1171C103.734 37.5811 103.681 38.0916 103.784 38.5842C103.886 39.0768 104.14 39.5292 104.512 39.8843C104.884 40.2395 105.357 40.4813 105.873 40.5793C106.389 40.6773 106.924 40.627 107.41 40.4348C107.896 40.2426 108.312 39.9171 108.604 39.4995C108.896 39.082 109.052 38.591 109.052 38.0888C109.052 37.4154 108.772 36.7695 108.273 36.2933C107.774 35.8171 107.098 35.5496 106.392 35.5496Z" fill="#096285"/>
<path d="M10.6406 2.53925C10.6406 3.04147 10.7966 3.53241 11.0889 3.94999C11.3812 4.36756 11.7966 4.69303 12.2827 4.88522C12.7687 5.07741 13.3035 5.12769 13.8195 5.02971C14.3355 4.93174 14.8094 4.6899 15.1814 4.33477C15.5534 3.97965 15.8068 3.5272 15.9094 3.03464C16.012 2.54207 15.9594 2.03151 15.758 1.56752C15.5567 1.10353 15.2158 0.706958 14.7784 0.427941C14.3409 0.148925 13.8267 0 13.3006 0C12.5951 0 11.9185 0.267528 11.4197 0.74373C10.9209 1.21993 10.6406 1.8658 10.6406 2.53925Z" fill="#096285"/>
<path d="M82.4519 0C55.4325 0 34.2102 21.9056 34.9165 45.7005H23.9395C22.2894 45.7031 20.6805 46.1925 19.3329 47.1015C17.9854 48.0106 16.965 49.295 16.4115 50.779H7.97983C5.86345 50.779 3.83375 51.5816 2.33724 53.0102C0.84073 54.4388 0 56.3764 0 58.3967C0 60.4171 0.84073 62.3547 2.33724 63.7833C3.83375 65.2119 5.86345 66.0145 7.97983 66.0145H29.2721C30.9216 66.0124 32.5299 65.5231 33.8766 64.6139C35.2232 63.7046 36.2422 62.4199 36.7938 60.936H38.601C39.1355 62.072 39.7146 63.1836 40.351 64.265L51.1689 81.2743H50.5771C49.8717 81.2743 49.1951 81.5418 48.6963 82.018C48.1974 82.4942 47.9172 83.1401 47.9172 83.8136C47.9172 84.487 48.1974 85.1329 48.6963 85.6091C49.1951 86.0853 49.8717 86.3528 50.5771 86.3528H54.3952L62.4832 99.1098C61.1738 99.8461 60.1118 100.924 59.4221 102.217C58.7325 103.51 58.4439 104.963 58.5903 106.407C58.7367 107.851 59.312 109.226 60.2485 110.368C61.185 111.511 62.4438 112.374 63.8768 112.857V122.431C63.8935 124.434 64.7351 126.351 66.2198 127.768C67.7046 129.184 69.7133 129.986 71.8121 130H93.0917C95.207 129.997 97.2348 129.193 98.7306 127.765C100.226 126.337 101.068 124.402 101.072 122.382V112.808C102.504 112.325 103.762 111.462 104.698 110.319C105.633 109.176 106.208 107.802 106.353 106.358C106.498 104.915 106.208 103.461 105.517 102.17C104.826 100.878 103.763 99.8016 102.452 99.0673L110.547 86.3103H114.365C115.07 86.3103 115.747 86.0428 116.246 85.5666C116.745 85.0904 117.025 84.4445 117.025 83.771C117.025 83.0976 116.745 82.4517 116.246 81.9755C115.747 81.4993 115.07 81.2318 114.365 81.2318H113.773L124.559 64.2224C141.27 35.914 117.375 0 82.4519 0ZM77.132 98.0103V86.3285H87.7718V98.0103H77.132ZM68.9231 81.25C63.9914 72.9397 61.1724 61.015 61.1724 48.2397C61.1724 36.5215 63.5332 25.514 67.8095 17.2584C71.1376 10.8192 75.4011 6.68224 79.792 5.46729V81.25H68.9231ZM34.5793 55.8879C33.8738 55.8879 33.1972 56.1554 32.6984 56.6316C32.1996 57.1078 31.9193 57.7537 31.9193 58.4271C31.911 59.0932 31.6288 59.7295 31.1336 60.1988C30.6384 60.6681 29.9699 60.9328 29.2721 60.936H7.97983C7.27437 60.936 6.5978 60.6685 6.09897 60.1923C5.60013 59.7161 5.31989 59.0702 5.31989 58.3967C5.31989 57.7233 5.60013 57.0774 6.09897 56.6012C6.5978 56.125 7.27437 55.8575 7.97983 55.8575H18.6196C19.3251 55.8575 20.0016 55.59 20.5005 55.1138C20.9993 54.6375 21.2796 53.9917 21.2796 53.3182C21.2796 52.6448 21.5598 51.9989 22.0586 51.5227C22.5575 51.0465 23.234 50.779 23.9395 50.779H45.2127C45.9182 50.779 46.5947 51.0465 47.0936 51.5227C47.5924 51.9989 47.8726 52.6448 47.8726 53.3182C47.8726 53.9917 47.5924 54.6375 47.0936 55.1138C46.5947 55.59 45.9182 55.8575 45.2127 55.8575L34.5793 55.8879ZM44.9581 61.7743C44.7991 61.507 44.6527 61.2397 44.5 60.9664H45.219C47.3354 60.9664 49.3651 60.1638 50.8616 58.7352C52.3582 57.3066 53.1989 55.369 53.1989 53.3486C53.1989 51.3282 52.3582 49.3906 50.8616 47.962C49.3651 46.5334 47.3354 45.7308 45.219 45.7308H40.2364C39.6828 29.578 50.8571 13.6743 67.9495 7.61168C59.0915 17.9388 55.8588 34.8023 55.8588 48.2701C55.8588 60.6808 58.4042 72.4294 62.9287 81.2804H57.3479L44.9581 61.7743ZM71.8121 86.3589V98.0407H67.994L60.5742 86.3285L71.8121 86.3589ZM93.0917 124.952H71.8121C71.1067 124.952 70.4301 124.684 69.9313 124.208C69.4324 123.732 69.1522 123.086 69.1522 122.413V113.24H95.7516V122.382C95.7516 123.056 95.4714 123.702 94.9725 124.178C94.4737 124.654 93.7971 124.922 93.0917 124.922V124.952ZM98.4116 108.192H66.4922C66.1324 108.208 65.7728 108.155 65.4351 108.035C65.0974 107.916 64.7888 107.731 64.5279 107.494C64.267 107.257 64.0593 106.972 63.9173 106.656C63.7754 106.34 63.7022 105.999 63.7022 105.655C63.7022 105.311 63.7754 104.971 63.9173 104.655C64.0593 104.339 64.267 104.054 64.5279 103.816C64.7888 103.579 65.0974 103.395 65.4351 103.275C65.7728 103.155 66.1324 103.102 66.4922 103.119H98.4116C98.7714 103.102 99.1311 103.155 99.4687 103.275C99.8064 103.395 100.115 103.579 100.376 103.816C100.637 104.054 100.845 104.339 100.986 104.655C101.128 104.971 101.202 105.311 101.202 105.655C101.202 105.999 101.128 106.34 100.986 106.656C100.845 106.972 100.637 107.257 100.376 107.494C100.115 107.731 99.8064 107.916 99.4687 108.035C99.1311 108.155 98.7714 108.208 98.4116 108.192ZM96.9161 98.0407H93.098V86.3285H104.361L96.9161 98.0407ZM119.946 61.7743L107.543 81.25H101.975C106.493 72.3991 109.039 60.6505 109.039 48.2397C109.039 47.5663 108.758 46.9204 108.26 46.4442C107.761 45.968 107.084 45.7005 106.379 45.7005C105.673 45.7005 104.997 45.968 104.498 46.4442C103.999 46.9204 103.719 47.5663 103.719 48.2397C103.719 60.9967 100.906 72.9397 95.968 81.25H85.1118V5.46729C91.9144 7.28972 98.1189 16.0617 101.383 28.8187C101.467 29.1426 101.616 29.4476 101.824 29.7163C102.031 29.985 102.291 30.2121 102.59 30.3847C102.889 30.5574 103.221 30.6721 103.566 30.7223C103.912 30.7725 104.264 30.7573 104.603 30.6776C104.943 30.5978 105.262 30.455 105.544 30.2574C105.825 30.0597 106.063 29.8111 106.244 29.5256C106.425 29.2402 106.545 28.9236 106.597 28.5938C106.65 28.2641 106.634 27.9276 106.55 27.6037C104.4 19.1963 101.059 12.3622 96.9543 7.59953C119.933 15.7336 131.896 41.3692 119.946 61.7439V61.7743Z" fill="#096285"/>
<path d="M0 22.8534C0 23.5268 0.280243 24.1727 0.77908 24.6489C1.27792 25.1251 1.95448 25.3926 2.65994 25.3926H5.31989V27.944C5.31989 28.6175 5.60013 29.2633 6.09897 29.7395C6.5978 30.2157 7.27437 30.4833 7.97983 30.4833C8.68529 30.4833 9.36186 30.2157 9.8607 29.7395C10.3595 29.2633 10.6398 28.6175 10.6398 27.944V25.3926H13.2997C14.0052 25.3926 14.6817 25.1251 15.1806 24.6489C15.6794 24.1727 15.9597 23.5268 15.9597 22.8534C15.9597 22.1799 15.6794 21.534 15.1806 21.0578C14.6817 20.5816 14.0052 20.3141 13.2997 20.3141H10.6398V17.7748C10.6398 17.1014 10.3595 16.4555 9.8607 15.9793C9.36186 15.5031 8.68529 15.2356 7.97983 15.2356C7.27437 15.2356 6.5978 15.5031 6.09897 15.9793C5.60013 16.4555 5.31989 17.1014 5.31989 17.7748V20.3141H2.65994C1.95448 20.3141 1.27792 20.5816 0.77908 21.0578C0.280243 21.534 0 22.1799 0 22.8534Z" fill="#096285"/>
<path d="M34.5784 15.2355C35.2839 15.2355 35.9605 14.968 36.4593 14.4918C36.9581 14.0156 37.2384 13.3697 37.2384 12.6963V10.157H39.8983C40.6038 10.157 41.2804 9.88948 41.7792 9.41328C42.278 8.93708 42.5583 8.29121 42.5583 7.61776C42.5583 6.94431 42.278 6.29844 41.7792 5.82223C41.2804 5.34603 40.6038 5.0785 39.8983 5.0785H37.2384V2.53925C37.2384 1.8658 36.9581 1.21993 36.4593 0.74373C35.9605 0.267528 35.2839 0 34.5784 0C33.873 0 33.1964 0.267528 32.6976 0.74373C32.1987 1.21993 31.9185 1.8658 31.9185 2.53925V5.0785H29.2713C28.5658 5.0785 27.8892 5.34603 27.3904 5.82223C26.8916 6.29844 26.6113 6.94431 26.6113 7.61776C26.6113 8.29121 26.8916 8.93708 27.3904 9.41328C27.8892 9.88948 28.5658 10.157 29.2713 10.157H31.9312V12.6963C31.9312 13.3676 32.2097 14.0116 32.7058 14.4875C33.2019 14.9634 33.8752 15.2323 34.5784 15.2355Z" fill="#096285"/>
</g>
<defs>
<clipPath id="clip0_499_939">
<rect width="130" height="130" fill="white"/>
</clipPath>
</defs>
</svg>
