<svg width="138" height="130" viewBox="0 0 138 130" fill="none" xmlns="http://www.w3.org/2000/svg">
<g clip-path="url(#clip0_499_925)">
<path d="M135.174 97.6878H129.627L119.018 84.1751C118.799 83.8971 118.526 83.6651 118.217 83.4923C117.907 83.3196 117.567 83.2095 117.215 83.1683C116.863 83.1271 116.506 83.1556 116.165 83.2523C115.824 83.3489 115.506 83.5118 115.228 83.7316C114.95 83.9514 114.718 84.2237 114.545 84.5332C114.372 84.8426 114.262 85.1831 114.221 85.535C114.18 85.887 114.208 86.2437 114.305 86.5847C114.402 86.9256 114.564 87.2442 114.784 87.5222L122.779 97.7056H89.8876L79.1957 87.0137C83.5837 84.7783 86.5228 81.8215 87.948 78.1786C89.6334 73.8617 88.7463 69.8995 87.8947 66.0852C87.0905 62.4838 86.3335 59.0894 87.534 55.1568C87.6986 54.613 87.8961 54.0798 88.1254 53.5601L101.49 70.5796C101.709 70.8576 101.98 71.0899 102.288 71.2631C102.597 71.4363 102.936 71.547 103.287 71.589C103.639 71.631 103.995 71.6035 104.335 71.5079C104.676 71.4123 104.994 71.2506 105.272 71.032C105.55 70.8134 105.782 70.5422 105.955 70.2338C106.129 69.9254 106.239 69.586 106.281 69.2348C106.323 68.8836 106.296 68.5276 106.2 68.1871C106.105 67.8466 105.943 67.5282 105.724 67.2502L83.3176 38.7168C83.0658 38.3959 82.7444 38.1364 82.3777 37.9579C82.0109 37.7795 81.6083 37.6868 81.2005 37.6868C80.7926 37.6868 80.3901 37.7795 80.0233 37.9579C79.6565 38.1364 79.3351 38.3959 79.0834 38.7168L57.8888 65.7067L51.0526 58.8706C50.8027 58.6202 50.5059 58.4216 50.1792 58.2861C49.8524 58.1506 49.5022 58.0809 49.1484 58.0809C48.7947 58.0809 48.4445 58.1506 48.1177 58.2861C47.791 58.4216 47.4941 58.6202 47.2442 58.8706L8.43288 97.6878H2.69072C2.33737 97.6878 1.98748 97.7574 1.66102 97.8926C1.33457 98.0279 1.03795 98.2261 0.788092 98.4759C0.538236 98.7258 0.34004 99.0224 0.204819 99.3488C0.0695974 99.6753 0 100.025 0 100.379L0 127.309C0 128.023 0.283485 128.707 0.788092 129.212C1.2927 129.717 1.97709 130 2.69072 130H135.157C135.87 130 136.555 129.717 137.059 129.212C137.564 128.707 137.847 128.023 137.847 127.309V100.379C137.847 99.6649 137.564 98.9805 137.059 98.4759C136.555 97.9713 135.87 97.6878 135.157 97.6878H135.174ZM81.2005 44.7428L84.4648 48.8824C83.5753 50.3451 82.8702 51.9123 82.3655 53.5483C80.7451 58.8706 81.7445 63.294 82.6198 67.2206C83.359 70.5323 83.9976 73.3945 82.9095 76.1857C81.8214 78.977 79.243 81.2183 75.1035 82.9451L61.6972 69.5388L81.2005 44.7428ZM49.1484 64.5831L82.2649 97.6996H49.3022C53.3117 95.4406 55.3578 92.8918 55.5884 89.9587C55.8782 86.3632 53.3708 83.9149 50.9462 81.5494C48.6635 79.32 46.304 77.0196 45.6594 73.5483C45.3388 71.529 45.5278 69.4617 46.2093 67.5341L49.1484 64.5831ZM40.2129 73.5128C40.2543 73.8499 40.3016 74.181 40.3607 74.5122C41.3128 79.6689 44.5653 82.8445 47.1792 85.3933C48.8587 87.0255 50.3016 88.4388 50.2188 89.5329C50.1597 90.2248 49.0775 93.8439 33.2407 97.6996H16.0438L40.2129 73.5128ZM132.466 124.613H5.38734V103.069H132.466V124.613Z" fill="#096285"/>
<path d="M109.794 80.0237C110.358 80.1209 110.939 80.0359 111.451 79.7811C111.964 79.5263 112.382 79.115 112.646 78.6066C112.909 78.0982 113.004 77.5191 112.916 76.9533C112.828 76.3875 112.563 75.8643 112.158 75.4594C111.753 75.0545 111.23 74.789 110.664 74.7014C110.098 74.6137 109.519 74.7084 109.011 74.9718C108.503 75.2351 108.091 75.6535 107.836 76.1662C107.582 76.679 107.497 77.2596 107.594 77.8238C107.688 78.3728 107.951 78.8791 108.345 79.273C108.738 79.6669 109.245 79.9292 109.794 80.0237Z" fill="#096285"/>
<path d="M19.6933 27.7943C19.9115 30.3398 21.0221 32.7263 22.8292 34.5323C24.6363 36.3383 27.0235 37.4476 29.5691 37.6642C29.853 37.6642 30.1605 37.6997 30.4266 37.6997C32.595 37.7009 34.7133 37.0479 36.5046 35.826C38.2959 34.6041 39.6769 32.8701 40.4669 30.8508C41.257 28.8315 41.4194 26.6208 40.9329 24.5077C40.4465 22.3946 39.3337 20.4774 37.7402 19.0069C36.1468 17.5363 34.1466 16.5807 32.0014 16.265C29.8561 15.9494 27.6655 16.2884 25.7159 17.2376C23.7664 18.1869 22.1486 19.7023 21.0741 21.5857C19.9996 23.4692 19.5184 25.633 19.6933 27.7943ZM26.6123 23.1166C27.6276 22.1076 29.0012 21.542 30.4325 21.5435C30.5804 21.5435 30.7223 21.5435 30.8642 21.5435C32.0842 21.6425 33.2339 22.1549 34.1232 22.996C35.0125 23.837 35.5881 24.9564 35.7549 26.1689C35.9217 27.3815 35.6696 28.6147 35.0405 29.6646C34.4113 30.7146 33.4426 31.5183 32.2947 31.943C31.1467 32.3677 29.8882 32.3879 28.7272 32.0003C27.5662 31.6127 26.5722 30.8404 25.9096 29.8113C25.2471 28.7821 24.9556 27.5576 25.0834 26.3403C25.2111 25.123 25.7505 23.9857 26.6123 23.1166Z" fill="#096285"/>
<path d="M30.4251 10.7688C31.1383 10.7672 31.8218 10.4833 32.326 9.97898C32.8303 9.47472 33.1143 8.79123 33.1159 8.07809V2.69074C33.0834 1.99817 32.7854 1.34471 32.2838 0.866061C31.7822 0.387414 31.1155 0.120361 30.4222 0.120361C29.7289 0.120361 29.0622 0.387414 28.5606 0.866061C28.0589 1.34471 27.761 1.99817 27.7285 2.69074V8.07809C27.7285 8.43194 27.7983 8.78231 27.9339 9.10915C28.0695 9.43599 28.2682 9.73287 28.5187 9.9828C28.7692 10.2327 29.0665 10.4308 29.3936 10.5657C29.7208 10.7006 30.0713 10.7696 30.4251 10.7688Z" fill="#096285"/>
<path d="M15.1987 15.5056C15.4488 15.7553 15.7456 15.9533 16.0721 16.0883C16.3987 16.2232 16.7487 16.2926 17.102 16.2923C17.4554 16.292 17.8053 16.2221 18.1316 16.0867C18.458 15.9512 18.7545 15.7527 19.0041 15.5027C19.2538 15.2526 19.4518 14.9558 19.5868 14.6293C19.7217 14.3027 19.7911 13.9527 19.7908 13.5993C19.7905 13.246 19.7207 12.8961 19.5852 12.5698C19.4497 12.2434 19.2513 11.9469 19.0012 11.6972L15.1987 7.88884C14.6937 7.38382 14.0087 7.1001 13.2945 7.1001C12.5803 7.1001 11.8953 7.38382 11.3903 7.88884C10.8853 8.39387 10.6016 9.07883 10.6016 9.79304C10.6016 10.5073 10.8853 11.1922 11.3903 11.6972L15.1987 15.5056Z" fill="#096285"/>
<path d="M6.19148 29.6216H11.5788C12.2714 29.5891 12.9249 29.2912 13.4035 28.7896C13.8822 28.288 14.1492 27.6213 14.1492 26.9279C14.1492 26.2346 13.8822 25.5679 13.4035 25.0663C12.9249 24.5647 12.2714 24.2667 11.5788 24.2343H6.19148C5.4989 24.2667 4.84544 24.5647 4.36679 25.0663C3.88815 25.5679 3.62109 26.2346 3.62109 26.9279C3.62109 27.6213 3.88815 28.288 4.36679 28.7896C4.84544 29.2912 5.4989 29.5891 6.19148 29.6216Z" fill="#096285"/>
<path d="M15.1987 38.3501L11.3903 42.1585C10.8853 42.6636 10.6016 43.3485 10.6016 44.0627C10.6016 44.7769 10.8853 45.4619 11.3903 45.9669C11.8953 46.472 12.5803 46.7557 13.2945 46.7557C14.0087 46.7557 14.6937 46.472 15.1987 45.9669L19.0012 42.1585C19.5062 41.6543 19.7902 40.9701 19.7908 40.2564C19.7914 39.5428 19.5084 38.8581 19.0041 38.3531C18.4999 37.8481 17.8157 37.564 17.102 37.5635C16.3884 37.5629 15.7037 37.8459 15.1987 38.3501Z" fill="#096285"/>
<path d="M27.7354 45.7777V51.1591C27.7183 51.5235 27.7753 51.8875 27.903 52.2292C28.0307 52.5709 28.2263 52.8831 28.4781 53.147C28.7299 53.4109 29.0327 53.621 29.368 53.7645C29.7033 53.908 30.0643 53.982 30.4291 53.982C30.7938 53.982 31.1548 53.908 31.4901 53.7645C31.8254 53.621 32.1282 53.4109 32.38 53.147C32.6318 52.8831 32.8274 52.5709 32.9551 52.2292C33.0828 51.8875 33.1398 51.5235 33.1227 51.1591V45.7777C33.1398 45.4134 33.0828 45.0493 32.9551 44.7076C32.8274 44.3659 32.6318 44.0537 32.38 43.7898C32.1282 43.5259 31.8254 43.3159 31.4901 43.1724C31.1548 43.0288 30.7938 42.9548 30.4291 42.9548C30.0643 42.9548 29.7033 43.0288 29.368 43.1724C29.0327 43.3159 28.7299 43.5259 28.4781 43.7898C28.2263 44.0537 28.0307 44.3659 27.903 44.7076C27.7753 45.0493 27.7183 45.4134 27.7354 45.7777Z" fill="#096285"/>
<path d="M41.8502 38.3501C41.5999 38.6 41.4013 38.8968 41.2658 39.2236C41.1303 39.5503 41.0605 39.9006 41.0605 40.2543C41.0605 40.608 41.1303 40.9583 41.2658 41.285C41.4013 41.6118 41.5999 41.9086 41.8502 42.1585L45.6586 45.9669C46.1636 46.4719 46.8486 46.7556 47.5628 46.7556C48.277 46.7556 48.962 46.4719 49.467 45.9669C49.972 45.4619 50.2558 44.7769 50.2558 44.0627C50.2558 43.3485 49.972 42.6635 49.467 42.1585L45.6586 38.3501C45.1531 37.846 44.4683 37.5629 43.7544 37.5629C43.0405 37.5629 42.3557 37.846 41.8502 38.3501Z" fill="#096285"/>
<path d="M46.582 26.9249C46.582 27.6401 46.8661 28.326 47.3719 28.8317C47.8776 29.3374 48.5635 29.6215 49.2787 29.6215H54.6601C55.0245 29.6386 55.3885 29.5816 55.7302 29.4539C56.0719 29.3262 56.3841 29.1306 56.648 28.8788C56.9119 28.6269 57.1219 28.3242 57.2654 27.9889C57.409 27.6536 57.483 27.2926 57.483 26.9278C57.483 26.5631 57.409 26.2021 57.2654 25.8668C57.1219 25.5314 56.9119 25.2287 56.648 24.9769C56.3841 24.7251 56.0719 24.5294 55.7302 24.4018C55.3885 24.2741 55.0245 24.2171 54.6601 24.2342H49.2787C48.5645 24.2342 47.8795 24.5175 47.3739 25.0219C46.8684 25.5263 46.5836 26.2107 46.582 26.9249Z" fill="#096285"/>
<path d="M43.7603 16.2922C44.474 16.2917 45.1585 16.009 45.6645 15.5056L49.4729 11.6972C49.7229 11.4472 49.9213 11.1503 50.0566 10.8236C50.192 10.4969 50.2616 10.1467 50.2616 9.79304C50.2616 9.4394 50.192 9.08922 50.0566 8.7625C49.9213 8.43577 49.7229 8.13891 49.4729 7.88884C49.2228 7.63878 48.9259 7.44042 48.5992 7.30509C48.2725 7.16975 47.9223 7.1001 47.5687 7.1001C47.215 7.1001 46.8649 7.16975 46.5381 7.30509C46.2114 7.44042 45.9145 7.63878 45.6645 7.88884L41.8561 11.6972C41.4791 12.0736 41.2224 12.5533 41.1183 13.0756C41.0142 13.598 41.0675 14.1395 41.2714 14.6316C41.4753 15.1236 41.8207 15.5441 42.2637 15.8397C42.7068 16.1353 43.2276 16.2928 43.7603 16.2922Z" fill="#096285"/>
</g>
<defs>
<clipPath id="clip0_499_925">
<rect width="137.865" height="130" fill="white"/>
</clipPath>
</defs>
</svg>
