<svg width="130" height="130" viewBox="0 0 130 130" fill="none" xmlns="http://www.w3.org/2000/svg">
<g clip-path="url(#clip0_499_947)">
<path d="M86.6673 50.3311H76.1027V44.0301C76.1027 41.0963 73.5194 38.6852 70.3364 38.6852H59.6471C56.47 38.6852 53.8808 41.0607 53.8808 44.0301V50.3311H43.3518C41.3289 50.3296 39.3882 51.1312 37.9562 52.56C36.5242 53.9888 35.718 55.9277 35.7148 57.9506V83.6655C35.7164 84.6669 35.9152 85.6582 36.2998 86.5828C36.6844 87.5073 37.2474 88.3471 37.9566 89.054C38.6657 89.761 39.5072 90.3214 40.4329 90.7032C41.3586 91.0849 42.3504 91.2806 43.3518 91.2791H86.7029C88.7216 91.2775 90.6571 90.4749 92.0845 89.0474C93.5119 87.6199 94.3145 85.6843 94.3161 83.6655V57.9506C94.3145 55.9313 93.5121 53.9951 92.0849 52.5667C90.6576 51.1382 88.7221 50.3343 86.7029 50.3311H86.6673ZM58.9701 44.0598C59.0576 43.9666 59.1649 43.8942 59.2841 43.8479C59.4034 43.8017 59.5314 43.7827 59.6589 43.7925H70.3483C70.4759 43.7814 70.6043 43.7997 70.7238 43.8461C70.8432 43.8924 70.9504 43.9655 71.0371 44.0598V50.3311H58.9701V44.0598ZM43.3518 55.4147H86.7029C87.3754 55.4147 88.0204 55.6819 88.496 56.1575C88.9715 56.633 89.2387 57.2781 89.2387 57.9506V61.3476L70.4136 63.9903H59.6233L40.7923 61.3476V57.9506C40.793 57.6158 40.86 57.2845 40.9891 56.9756C41.1183 56.6667 41.3073 56.3864 41.5451 56.1508C41.7829 55.9152 42.065 55.7288 42.375 55.6025C42.6851 55.4762 43.017 55.4124 43.3518 55.4147ZM68.0382 75.0959H61.9868V69.068H68.0144L68.0382 75.0959ZM86.6851 86.2014H43.3518C42.6787 86.2014 42.0331 85.9344 41.5566 85.459C41.0801 84.9836 40.8117 84.3386 40.8101 83.6655V66.4787L56.9272 68.7354V75.0959C56.9288 76.4421 57.4642 77.7327 58.4161 78.6846C59.368 79.6365 60.6585 80.172 62.0046 80.1735H68.0322C69.3779 80.1704 70.6675 79.6344 71.6191 78.6829C72.5706 77.7313 73.1065 76.4416 73.1097 75.0959V68.7354L89.2209 66.4787V83.6655C89.2209 84.0001 89.1547 84.3313 89.0261 84.6401C88.8976 84.9489 88.7092 85.2293 88.4719 85.465C88.2345 85.7007 87.9529 85.8871 87.6432 86.0135C87.3334 86.1399 87.0018 86.2038 86.6673 86.2014H86.6851Z" fill="#096285"/>
<path d="M32.8162 38.0854V30.0561C32.8129 27.6673 32.0976 25.3337 30.7616 23.3534C29.4256 21.3732 27.5296 19.8362 25.3159 18.9387C26.7169 17.2477 27.6078 15.1928 27.8843 13.0142C28.1608 10.8357 27.8115 8.62337 26.8773 6.63595C25.943 4.64853 24.4624 2.96809 22.6086 1.79102C20.7547 0.613953 18.6041 -0.0111084 16.4081 -0.0111084C14.2121 -0.0111084 12.0615 0.613953 10.2077 1.79102C8.35378 2.96809 6.8732 4.64853 5.93897 6.63595C5.00474 8.62337 4.65546 10.8357 4.93195 13.0142C5.20844 15.1928 6.09928 17.2477 7.50034 18.9387C5.28707 19.8368 3.39155 21.374 2.05566 23.3541C0.71978 25.3342 0.00411757 27.6675 0 30.0561L0 38.0854C0.00156773 39.4321 0.536824 40.7233 1.48852 41.6762C2.44021 42.629 3.73075 43.1658 5.07743 43.169H27.7329C29.0806 43.1674 30.3726 42.6313 31.3256 41.6783C32.2786 40.7253 32.8147 39.4331 32.8162 38.0854ZM16.4081 5.07761C17.6919 5.07761 18.9468 5.4583 20.0142 6.17155C21.0816 6.8848 21.9136 7.89857 22.4048 9.08466C22.8961 10.2708 23.0246 11.5759 22.7742 12.835C22.5237 14.0942 21.9056 15.2508 20.9978 16.1586C20.09 17.0664 18.9335 17.6846 17.6744 17.9351C16.4153 18.1855 15.1102 18.057 13.9242 17.5657C12.7382 17.0744 11.7244 16.2424 11.0112 15.175C10.298 14.1075 9.91732 12.8525 9.91732 11.5687C9.91889 9.84764 10.6032 8.19752 11.8202 6.98054C13.0371 5.76356 14.6871 5.07918 16.4081 5.07761ZM5.07743 30.0561C5.08683 28.2263 5.8195 26.4744 7.11559 25.1827C8.41168 23.891 10.166 23.1643 11.9958 23.1612H20.8145C22.6448 23.1628 24.4 23.8889 25.6964 25.181C26.9928 26.473 27.725 28.2258 27.7329 30.0561V38.0854H5.07743V30.0561Z" fill="#096285"/>
<path d="M122.499 105.776C123.9 104.085 124.791 102.03 125.068 99.8512C125.344 97.6726 124.995 95.4603 124.061 93.4729C123.127 91.4854 121.646 89.805 119.792 88.6279C117.938 87.4509 115.788 86.8258 113.592 86.8258C111.396 86.8258 109.245 87.4509 107.391 88.6279C105.537 89.805 104.057 91.4854 103.122 93.4729C102.188 95.4603 101.839 97.6726 102.115 99.8512C102.392 102.03 103.283 104.085 104.684 105.776C102.471 106.674 100.577 108.211 99.2416 110.192C97.9068 112.172 97.1923 114.505 97.1895 116.893V124.922C97.1926 126.268 97.7285 127.558 98.6801 128.509C99.6316 129.461 100.921 129.997 102.267 130H124.928C126.274 129.997 127.564 129.461 128.515 128.509C129.467 127.558 130.003 126.268 130.006 124.922V116.893C130.003 114.503 129.287 112.169 127.95 110.188C126.612 108.208 124.715 106.671 122.499 105.776ZM113.592 91.9145C114.875 91.9145 116.13 92.2952 117.198 93.0085C118.265 93.7217 119.097 94.7355 119.588 95.9216C120.08 97.1077 120.208 98.4128 119.958 99.672C119.707 100.931 119.089 102.088 118.181 102.996C117.274 103.903 116.117 104.522 114.858 104.772C113.599 105.022 112.294 104.894 111.108 104.403C109.922 103.911 108.908 103.079 108.195 102.012C107.482 100.944 107.101 99.6894 107.101 98.4056C107.102 96.6846 107.787 95.0344 109.004 93.8175C110.221 92.6005 111.871 91.9161 113.592 91.9145ZM124.922 124.922H102.261V116.893C102.263 115.059 102.992 113.3 104.289 112.003C105.586 110.705 107.345 109.976 109.179 109.974H118.004C119.838 109.976 121.597 110.705 122.894 112.003C124.191 113.3 124.921 115.059 124.922 116.893V124.922Z" fill="#096285"/>
<path d="M84.9565 111.423L74.8967 105.615C74.2933 105.269 73.6248 105.051 72.9332 104.975C72.2415 104.899 71.5416 104.967 70.8775 105.174C70.2133 105.382 69.5992 105.724 69.0737 106.18C68.5482 106.636 68.1227 107.196 67.8239 107.825H61.4459C61.1022 107.808 60.7587 107.861 60.4362 107.981C60.1137 108.101 59.819 108.286 59.5698 108.523C59.3207 108.761 59.1223 109.046 58.9868 109.362C58.8513 109.679 58.7814 110.019 58.7814 110.363C58.7814 110.708 58.8513 111.048 58.9868 111.364C59.1223 111.681 59.3207 111.966 59.5698 112.204C59.819 112.441 60.1137 112.625 60.4362 112.745C60.7587 112.866 61.1022 112.919 61.4459 112.902H69.8845C70.5586 112.902 71.2051 112.634 71.6818 112.158C72.1584 111.681 72.4262 111.035 72.4262 110.36V110.052L82.3495 115.806L72.45 121.519V120.658C72.45 119.984 72.1822 119.338 71.7055 118.861C71.2289 118.384 70.5824 118.117 69.9083 118.117H32.2225C27.516 118.106 23.0051 116.233 19.6749 112.907C16.3447 109.581 14.4658 105.072 14.4485 100.365V55.1238H19.6685V100.205C19.6716 103.571 21.0095 106.797 23.3886 109.178C25.7677 111.558 28.9937 112.898 32.3591 112.902H38.2976C38.6413 112.919 38.9848 112.866 39.3073 112.745C39.6298 112.625 39.9246 112.441 40.1737 112.204C40.4228 111.966 40.6212 111.681 40.7567 111.364C40.8922 111.048 40.9621 110.708 40.9621 110.363C40.9621 110.019 40.8922 109.679 40.7567 109.362C40.6212 109.046 40.4228 108.761 40.1737 108.523C39.9246 108.286 39.6298 108.101 39.3073 107.981C38.9848 107.861 38.6413 107.808 38.2976 107.825H32.3591C30.3399 107.821 28.4044 107.017 26.9771 105.589C25.5499 104.161 24.7475 102.224 24.7459 100.205V55.1238C24.7443 53.7776 24.2089 52.487 23.257 51.5351C22.3052 50.5832 21.0146 50.0477 19.6685 50.0461H14.4485C13.1024 50.0477 11.8118 50.5832 10.86 51.5351C9.90811 52.487 9.37267 53.7776 9.37109 55.1238V100.365C9.37738 106.424 11.787 112.233 16.0711 116.518C20.3552 120.802 26.1639 123.212 32.2225 123.218H67.6042C67.9909 124.387 68.797 125.37 69.8667 125.979C70.6294 126.427 71.4975 126.663 72.3817 126.663C73.2659 126.663 74.134 126.427 74.8967 125.979L84.9565 120.171C85.7223 119.729 86.3584 119.094 86.8006 118.328C87.2428 117.562 87.4756 116.694 87.4756 115.809C87.4756 114.925 87.2428 114.056 86.8006 113.291C86.3584 112.525 85.7223 111.889 84.9565 111.447V111.423Z" fill="#096285"/>
<path d="M45.0374 18.5705L55.0972 24.3787C55.7006 24.7255 56.3692 24.944 57.0611 25.0204C57.7529 25.0968 58.453 25.0295 59.1176 24.8227C59.7822 24.6158 60.3969 24.2739 60.9232 23.8183C61.4494 23.3628 61.8759 22.8035 62.1759 22.1754H97.6348C99.654 22.1769 101.59 22.9794 103.018 24.4067C104.447 25.834 105.251 27.7696 105.254 29.7889V74.8762C105.257 76.2219 105.793 77.5116 106.745 78.4631C107.696 79.4147 108.986 79.9507 110.331 79.9538H115.545C116.892 79.9522 118.183 79.417 119.136 78.4652C120.089 77.5135 120.626 76.2229 120.629 74.8762V29.6523C120.621 23.5939 118.211 17.7858 113.927 13.5019C109.643 9.2179 103.835 6.80771 97.7773 6.79986H62.3956C62.1563 6.09324 61.7633 5.44848 61.2449 4.91195C60.7265 4.37542 60.0956 3.96047 59.3977 3.69695C58.6998 3.43344 57.9521 3.32791 57.2085 3.38796C56.4649 3.44802 55.7438 3.67216 55.0972 4.04426L45.0433 9.85239C44.2773 10.2935 43.6411 10.9287 43.1987 11.6939C42.7564 12.4592 42.5234 13.3275 42.5234 14.2115C42.5234 15.0954 42.7564 15.9637 43.1987 16.729C43.6411 17.4943 44.2773 18.1294 45.0433 18.5705H45.0374ZM57.6033 8.48053V9.34166C57.6032 10.0091 57.8663 10.6496 58.3354 11.1244C58.8046 11.5991 59.442 11.8697 60.1093 11.8775H97.7773C102.487 11.8901 107 13.767 110.329 17.0979C113.659 20.4287 115.534 24.9425 115.545 29.6523V74.8762H110.331V29.7889C110.327 26.4234 108.987 23.1972 106.607 20.818C104.227 18.4388 101 17.1009 97.6348 17.0977H60.1093C59.442 17.1055 58.8046 17.3761 58.3354 17.8509C57.8663 18.3256 57.6032 18.9661 57.6033 19.6336V19.9424L47.6444 14.2115L57.6033 8.48053Z" fill="#096285"/>
<path d="M49.8542 112.902C51.2579 112.902 52.3959 111.764 52.3959 110.36C52.3959 108.957 51.2579 107.819 49.8542 107.819C48.4504 107.819 47.3125 108.957 47.3125 110.36C47.3125 111.764 48.4504 112.902 49.8542 112.902Z" fill="#096285"/>
</g>
<defs>
<clipPath id="clip0_499_947">
<rect width="130" height="130" fill="white"/>
</clipPath>
</defs>
</svg>
