<svg width="130" height="130" viewBox="0 0 130 130" fill="none" xmlns="http://www.w3.org/2000/svg">
<g clip-path="url(#clip0_499_973)">
<path d="M110.701 82.7748C112.104 82.7748 113.241 81.6379 113.241 80.2355C113.241 78.8332 112.104 77.6963 110.701 77.6963C109.299 77.6963 108.162 78.8332 108.162 80.2355C108.162 81.6379 109.299 82.7748 110.701 82.7748Z" fill="#096285"/>
<path d="M34.5295 26.9173C35.9319 26.9173 37.0687 25.7804 37.0687 24.378C37.0687 22.9756 35.9319 21.8387 34.5295 21.8387C33.1271 21.8387 31.9902 22.9756 31.9902 24.378C31.9902 25.7804 33.1271 26.9173 34.5295 26.9173Z" fill="#096285"/>
<path d="M14.2209 87.8533C15.6233 87.8533 16.7601 86.7164 16.7601 85.314C16.7601 83.9116 15.6233 82.7748 14.2209 82.7748C12.8185 82.7748 11.6816 83.9116 11.6816 85.314C11.6816 86.7164 12.8185 87.8533 14.2209 87.8533Z" fill="#096285"/>
<path d="M12.3017 33.9093C13.4365 39.1377 16.0521 43.929 19.8363 47.711C23.6205 51.4931 28.4133 54.106 33.6423 55.2378C37.2659 56.0081 41.0049 56.0638 44.6498 55.4019C45.3954 56.0848 46.2716 56.6096 47.2255 56.9448V62.4607H37.7914C34.9433 62.4632 32.1439 63.1997 29.6633 64.599C28.8447 63.8043 27.858 63.2037 26.7762 62.8414C25.6943 62.4791 24.5449 62.3644 23.4128 62.5059C22.2807 62.6473 21.1948 63.0412 20.2353 63.6586C19.2758 64.2759 18.4673 65.1009 17.8694 66.0726C17.2714 67.0443 16.8994 68.1379 16.7807 69.2726C16.6621 70.4073 16.7998 71.5542 17.1838 72.6286C17.5678 73.7029 18.1882 74.6773 18.9992 75.4798C19.8102 76.2823 20.7911 76.8923 21.8694 77.2649C21.7925 79.9976 22.4528 82.7005 23.781 85.0899C25.1092 87.4793 27.0563 89.4669 29.4179 90.844C31.7794 92.2212 34.4681 92.937 37.2018 92.9163C39.9354 92.8957 42.6131 92.1393 44.9535 90.7266C49.2848 88.0963 54.6246 88.1631 58.239 90.8906C61.0699 93.0229 62.4489 96.1878 62.4489 100.55C62.4488 100.884 62.5149 101.215 62.6433 101.524C62.7717 101.833 62.9598 102.113 63.1969 102.349C63.434 102.585 63.7153 102.772 64.0248 102.899C64.3343 103.026 64.6658 103.09 65.0003 103.089C68.3592 103.082 71.5794 101.748 73.958 99.3759C76.3365 97.0042 77.6805 93.7879 77.6965 90.429C77.6965 87.0561 79.0322 83.8205 81.4115 81.4298C83.7907 79.0391 87.02 77.688 90.3928 77.6719H92.9442C96.4853 77.6691 99.9867 76.9258 103.224 75.4898C106.461 74.0538 109.361 71.9568 111.74 69.3334C114.119 66.71 115.922 63.6182 117.035 60.2565C118.148 56.8948 118.546 53.3376 118.203 49.8131C116.952 36.7037 105.276 26.9112 91.9479 26.9112H87.8535V15.2355H90.3928C90.8952 15.2353 91.3864 15.0861 91.804 14.8067C92.2216 14.5273 92.5469 14.1303 92.7388 13.6659C92.9306 13.2015 92.9804 12.6906 92.8818 12.1979C92.7832 11.7052 92.5406 11.2529 92.1848 10.8981L82.0096 0.741104C81.5334 0.265164 80.8877 -0.00219727 80.2145 -0.00219727C79.5413 -0.00219727 78.8956 0.265164 78.4194 0.741104L68.2806 10.8981C67.9259 11.2558 67.6854 11.7108 67.5894 12.2053C67.4935 12.6999 67.5464 13.2118 67.7415 13.6762C67.9367 14.1406 68.2652 14.5367 68.6856 14.8143C69.106 15.0919 69.5993 15.2385 70.1031 15.2355H72.6423V26.9112H71.154L61.7199 17.5014C61.2429 17.0269 60.5975 16.7606 59.9248 16.7606C59.252 16.7606 58.6066 17.0269 58.1297 17.5014L51.9213 23.6916C50.9227 22.8041 50.1541 21.6879 49.6812 20.4384C49.2083 19.189 49.0452 17.8435 49.2059 16.5173C49.3489 14.9252 50.0421 13.4328 51.1662 12.2964C52.2904 11.1601 53.7753 10.4508 55.3657 10.2906C55.8634 10.2236 56.3301 10.0108 56.7072 9.67909C57.0842 9.34736 57.3547 8.9115 57.4846 8.42639C57.6145 7.94127 57.598 7.42857 57.4371 6.95282C57.2763 6.47707 56.9783 6.05954 56.5806 5.75279C52.0347 2.27517 46.5304 0.277378 40.8122 0.0295298C35.094 -0.218318 29.4375 1.29573 24.6077 4.36697C19.7779 7.43821 16.0076 11.9185 13.8067 17.202C11.6058 22.4856 11.0805 28.3175 12.3017 33.9093ZM24.5059 72.6117H24.3783C23.6961 72.5949 23.0479 72.3099 22.5744 71.8186C22.1008 71.3272 21.84 70.669 21.8483 69.9866C21.8567 69.3043 22.1337 68.6527 22.6192 68.1731C23.1047 67.6935 23.7596 67.4246 24.4421 67.4246C25.1245 67.4246 25.7794 67.6935 26.2649 68.1731C26.7505 68.6527 27.0274 69.3043 27.0358 69.9866C27.0442 70.669 26.7833 71.3272 26.3098 71.8186C25.8362 72.3099 25.1881 72.5949 24.5059 72.6117ZM91.9358 31.9897C102.84 31.9897 112.153 40.0327 113.137 50.299C113.416 53.1199 113.101 55.9678 112.214 58.6599C111.326 61.3519 109.885 63.8285 107.983 65.9305C106.082 68.0324 103.761 69.7133 101.171 70.865C98.5811 72.0166 95.7787 72.6137 92.9442 72.6177H90.3928C85.6794 72.6338 81.1639 74.515 77.8333 77.8502C74.5026 81.1854 72.6276 85.7034 72.618 90.4168C72.6086 92.0194 72.0956 93.5786 71.1515 94.8736C70.2075 96.1687 68.8801 97.1343 67.3573 97.6336C66.7498 93.0533 64.7451 89.4266 61.3129 86.8327C56.0521 82.8659 48.4222 82.6897 42.3292 86.3892C40.3093 87.608 37.9286 88.0866 35.5946 87.7431C33.2607 87.3995 31.1188 86.2552 29.5358 84.5061C27.7385 82.5323 26.7989 79.9254 26.9236 77.2589C28.4073 76.7334 29.6914 75.7605 30.5988 74.4744C31.5062 73.1884 31.9923 71.6525 31.99 70.0785C31.9901 69.7699 31.9718 69.4615 31.9353 69.1551C33.7056 68.0977 35.7293 67.5393 37.7914 67.5392H82.7447C85.4385 67.5392 88.0219 66.4691 89.9267 64.5643C91.8315 62.6595 92.9016 60.076 92.9016 57.3822C92.9016 54.6884 91.8315 52.1049 89.9267 50.2001C88.0219 48.2953 85.4385 47.2252 82.7447 47.2252H77.6661V42.1467H80.2054C80.7089 42.1507 81.2022 42.0045 81.6223 41.7268C82.0424 41.4491 82.3702 41.0525 82.5638 40.5877C82.7574 40.1228 82.8081 39.6108 82.7094 39.117C82.6107 38.6232 82.3671 38.1701 82.0096 37.8154L76.19 31.9897H91.9358ZM65.0003 47.2252C64.3268 47.2252 63.6809 47.4927 63.2047 47.9689C62.7285 48.4451 62.461 49.091 62.461 49.7645V52.3037H57.3825V49.7645C57.3825 49.091 57.115 48.4451 56.6388 47.9689C56.1626 47.4927 55.5167 47.2252 54.8432 47.2252C54.1698 47.2252 53.5239 47.4927 53.0477 47.9689C52.5715 48.4451 52.304 49.091 52.304 49.7645V52.3037H49.7647C49.0913 52.3037 48.4454 52.0362 47.9692 51.56C47.493 51.0838 47.2255 50.4379 47.2255 49.7645V42.1467H72.618V49.8131C72.6053 50.4792 72.3326 51.1139 71.8581 51.5816C71.3836 52.0493 70.745 52.3128 70.0788 52.3159H67.5395V49.7645C67.5395 49.091 67.272 48.4451 66.7958 47.9689C66.3196 47.4927 65.6737 47.2252 65.0003 47.2252ZM67.5395 57.3822V62.4607H52.304V57.3822H67.5395ZM77.6965 26.9112V15.2355H82.775V26.9112H77.6965ZM80.2358 6.12942L84.2633 10.157H76.2082L80.2358 6.12942ZM77.247 52.2976H82.775C84.1235 52.2976 85.4168 52.8333 86.3704 53.7869C87.3239 54.7404 87.8596 56.0337 87.8596 57.3822C87.8596 58.7307 87.3239 60.024 86.3704 60.9776C85.4168 61.9311 84.1235 62.4668 82.775 62.4668H72.618V56.9448C73.6826 56.5578 74.6491 55.9415 75.449 55.1395C76.2489 54.3374 76.8628 53.3693 77.247 52.3037V52.2976ZM59.9217 22.8897L74.1124 37.0561H45.7372L59.9217 22.8897ZM39.6077 5.07849C42.9812 5.06753 46.3144 5.81056 49.3638 7.25325C47.9002 8.22478 46.6715 9.51011 45.7668 11.0159C44.862 12.5217 44.3041 14.21 44.1334 15.9584C43.8779 18.051 44.1242 20.1744 44.852 22.1529C45.5798 24.1315 46.7682 25.9083 48.3189 27.3364L37.8157 37.8154C37.457 38.1712 37.213 38.626 37.1148 39.1215C37.0166 39.6171 37.0689 40.1306 37.2648 40.5963C37.4607 41.0619 37.7913 41.4583 38.2142 41.7346C38.6371 42.0108 39.133 42.1544 39.6381 42.1467H42.1774V49.7645C42.1803 50.0548 42.1985 50.3448 42.232 50.6332C39.7194 50.912 37.1784 50.7869 34.7054 50.2626C29.2035 49.0514 24.3427 45.8512 21.0555 41.276C17.7684 36.7008 16.2865 31.0729 16.8941 25.4721C17.5018 19.8714 20.1562 14.6923 24.3481 10.9285C28.54 7.16479 33.9741 5.08154 39.6077 5.07849Z" fill="#096285"/>
<path d="M127.46 25.3925H124.921V22.8532C124.921 22.1798 124.653 21.5339 124.177 21.0577C123.701 20.5815 123.055 20.314 122.381 20.314C121.708 20.314 121.062 20.5815 120.586 21.0577C120.11 21.5339 119.842 22.1798 119.842 22.8532V25.3925H117.303C116.629 25.3925 115.984 25.66 115.507 26.1362C115.031 26.6124 114.764 27.2583 114.764 27.9317C114.764 28.6052 115.031 29.251 115.507 29.7272C115.984 30.2034 116.629 30.471 117.303 30.471H119.842V33.0102C119.842 33.6837 120.11 34.3295 120.586 34.8058C121.062 35.282 121.708 35.5495 122.381 35.5495C123.055 35.5495 123.701 35.282 124.177 34.8058C124.653 34.3295 124.921 33.6837 124.921 33.0102V30.471H127.46C128.133 30.471 128.779 30.2034 129.255 29.7272C129.732 29.251 129.999 28.6052 129.999 27.9317C129.999 27.2583 129.732 26.6124 129.255 26.1362C128.779 25.66 128.133 25.3925 127.46 25.3925Z" fill="#096285"/>
<path d="M95.4713 98.0102C96.1442 98.0086 96.7892 97.7406 97.265 97.2647C97.7409 96.7889 98.0089 96.1439 98.0105 95.471V92.9439H100.55C101.223 92.9439 101.869 92.6764 102.345 92.2001C102.822 91.7239 103.089 91.0781 103.089 90.4046C103.089 89.7312 102.822 89.0853 102.345 88.6091C101.869 88.1329 101.223 87.8654 100.55 87.8654H98.0105V85.3261C98.0105 84.6527 97.743 84.0068 97.2668 83.5306C96.7906 83.0544 96.1447 82.7869 95.4713 82.7869C94.7978 82.7869 94.152 83.0544 93.6758 83.5306C93.1996 84.0068 92.932 84.6527 92.932 85.3261V87.8654H90.3928C89.7193 87.8654 89.0735 88.1329 88.5973 88.6091C88.121 89.0853 87.8535 89.7312 87.8535 90.4046C87.8535 91.0781 88.121 91.7239 88.5973 92.2001C89.0735 92.6764 89.7193 92.9439 90.3928 92.9439H92.9442V95.4831C92.9474 96.1524 93.2146 96.7933 93.6879 97.2665C94.1611 97.7398 94.802 98.007 95.4713 98.0102Z" fill="#096285"/>
<path d="M7.61776 47.2252C6.94431 47.2252 6.29844 47.4927 5.82223 47.969C5.34603 48.4452 5.0785 49.091 5.0785 49.7645V52.3037H2.53925C1.8658 52.3037 1.21993 52.5713 0.74373 53.0475C0.267528 53.5237 0 54.1695 0 54.843C0 55.5164 0.267528 56.1623 0.74373 56.6385C1.21993 57.1147 1.8658 57.3822 2.53925 57.3822H5.0785V59.9215C5.0785 60.5949 5.34603 61.2408 5.82223 61.717C6.29844 62.1932 6.94431 62.4607 7.61776 62.4607C8.29121 62.4607 8.93708 62.1932 9.41328 61.717C9.88948 61.2408 10.157 60.5949 10.157 59.9215V57.3822H12.6963C13.3697 57.3822 14.0156 57.1147 14.4918 56.6385C14.968 56.1623 15.2355 55.5164 15.2355 54.843C15.2355 54.1695 14.968 53.5237 14.4918 53.0475C14.0156 52.5713 13.3697 52.3037 12.6963 52.3037H10.157V49.7645C10.157 49.091 9.88948 48.4452 9.41328 47.969C8.93708 47.4927 8.29121 47.2252 7.61776 47.2252Z" fill="#096285"/>
<path d="M105.628 2.42327e-06C104.121 -0.00119926 102.647 0.444553 101.394 1.28087C100.14 2.11719 99.163 3.3065 98.5855 4.69836C98.008 6.09022 97.8563 7.62208 98.1495 9.10018C98.4428 10.5783 99.1678 11.9362 100.233 13.0022C101.298 14.0681 102.655 14.7943 104.133 15.0887C105.611 15.3831 107.143 15.2326 108.535 14.6562C109.928 14.0798 111.118 13.1035 111.955 11.8506C112.792 10.5977 113.239 9.12467 113.239 7.61776C113.238 5.59895 112.436 3.6632 111.009 2.23511C109.582 0.807028 107.647 0.00321901 105.628 2.42327e-06ZM105.628 10.157C105.125 10.1582 104.634 10.0103 104.215 9.73203C103.797 9.45374 103.471 9.05759 103.277 8.59371C103.084 8.12983 103.033 7.61908 103.13 7.12611C103.228 6.63314 103.469 6.18012 103.824 5.8244C104.179 5.46867 104.631 5.22622 105.124 5.12775C105.617 5.02928 106.128 5.07921 106.592 5.27122C107.056 5.46323 107.453 5.78869 107.733 6.2064C108.012 6.62411 108.161 7.11528 108.161 7.61776C108.161 8.29016 107.894 8.93511 107.419 9.41114C106.944 9.88717 106.3 10.1554 105.628 10.157Z" fill="#096285"/>
<path d="M33.7697 124.922C35.1721 124.922 36.309 123.785 36.309 122.382C36.309 120.98 35.1721 119.843 33.7697 119.843C32.3673 119.843 31.2305 120.98 31.2305 122.382C31.2305 123.785 32.3673 124.922 33.7697 124.922Z" fill="#096285"/>
<path d="M127.461 119.843H123.925L119.551 111.089C119.339 110.668 119.015 110.314 118.614 110.067C118.213 109.819 117.751 109.687 117.279 109.686C110.218 109.673 103.177 108.948 96.2607 107.523C86.7173 105.549 84.6579 104.583 80.2355 104.583C73.693 104.583 68.086 107.013 65 110.658C61.914 107.013 56.307 104.583 49.7645 104.583C45.3481 104.583 43.3252 105.537 33.7393 107.523C26.8147 108.942 19.7647 109.658 12.6963 109.662C12.2249 109.663 11.7631 109.795 11.362 110.042C10.961 110.29 10.6364 110.644 10.4243 111.065L6.07477 119.843H2.53925C1.8658 119.843 1.21993 120.11 0.74373 120.587C0.267528 121.063 0 121.709 0 122.382C0 123.056 0.267528 123.702 0.74373 124.178C1.21993 124.654 1.8658 124.921 2.53925 124.921H22.343C23.0164 124.921 23.6623 124.654 24.1385 124.178C24.6147 123.702 24.8822 123.056 24.8822 122.382C24.8822 121.709 24.6147 121.063 24.1385 120.587C23.6623 120.11 23.0164 119.843 22.343 119.843H11.7243L14.2696 114.752C21.1822 114.664 28.0703 113.911 34.8388 112.505C44.8804 110.403 46.1743 109.686 49.7645 109.686C56.6472 109.686 62.4607 113.173 62.4607 117.304C62.4607 117.977 62.7283 118.623 63.2045 119.099C63.6807 119.575 64.3265 119.843 65 119.843C65.6734 119.843 66.3193 119.575 66.7955 119.099C67.2717 118.623 67.5392 117.977 67.5392 117.304C67.5392 113.173 73.3528 109.686 80.2355 109.686C83.8257 109.686 85.0953 110.403 95.1612 112.505C101.93 113.911 108.818 114.664 115.73 114.752L118.276 119.843H75.1449C74.8066 119.84 74.4712 119.904 74.1582 120.033C73.8453 120.161 73.5611 120.35 73.3224 120.59L68.9911 124.921H60.9724L56.6411 120.59C56.4024 120.35 56.1183 120.161 55.8053 120.033C55.4923 119.904 55.1569 119.84 54.8187 119.843H45.1963C44.5228 119.843 43.8769 120.11 43.4007 120.587C42.9245 121.063 42.657 121.709 42.657 122.382C42.657 123.056 42.9245 123.702 43.4007 124.178C43.8769 124.654 44.5228 124.921 45.1963 124.921H53.7921L58.1294 129.259C58.3684 129.498 58.6528 129.686 58.9658 129.814C59.2787 129.941 59.614 130.004 59.9519 130H70.1089C70.4467 130.004 70.782 129.941 71.095 129.814C71.408 129.686 71.6923 129.498 71.9313 129.259L76.2687 124.921H127.521C128.195 124.921 128.841 124.654 129.317 124.178C129.793 123.702 130.061 123.056 130.061 122.382C130.061 121.709 129.793 121.063 129.317 120.587C128.841 120.11 128.195 119.843 127.521 119.843H127.461Z" fill="#096285"/>
</g>
<defs>
<clipPath id="clip0_499_973">
<rect width="130" height="130" fill="white"/>
</clipPath>
</defs>
</svg>
