<svg width="130" height="130" viewBox="0 0 130 130" fill="none" xmlns="http://www.w3.org/2000/svg">
<g clip-path="url(#clip0_499_956)">
<path d="M65.7641 114.338H12.5316C12.0113 114.341 11.4988 114.213 11.0404 113.967C10.5821 113.721 10.1925 113.364 9.90695 112.929C9.62143 112.494 9.44907 111.995 9.4055 111.476C9.36194 110.958 9.44854 110.437 9.65746 109.96C12.2098 104.058 14.2472 97.9457 15.7467 91.6924C17.8916 82.7197 18.9143 73.5153 18.7914 64.2906C18.7808 63.8733 18.854 63.458 19.0066 63.0695C19.1592 62.6809 19.3882 62.3268 19.68 62.0282C19.9718 61.7296 20.3204 61.4926 20.7054 61.331C21.0904 61.1695 21.5038 61.0867 21.9213 61.0877H56.3866C56.7976 61.0861 57.2048 61.1657 57.5848 61.3221C57.9649 61.4784 58.3103 61.7083 58.6012 61.9987C58.8921 62.289 59.1227 62.6339 59.2798 63.0137C59.4368 63.3934 59.5173 63.8005 59.5165 64.2115V64.2602C59.3022 79.9674 62.415 95.5421 68.6504 109.96C68.8577 110.437 68.943 110.957 68.8987 111.475C68.8544 111.993 68.6819 112.492 68.3967 112.926C68.1115 113.361 67.7226 113.717 67.2651 113.964C66.8076 114.21 66.2959 114.339 65.7763 114.338H65.7641ZM17.196 108.073H61.118C56.1005 95.0719 53.4385 81.2815 53.2567 67.3474H25.0573C24.9436 76.046 23.8653 84.7052 21.8421 93.166C20.6224 98.2315 19.0703 103.211 17.196 108.073Z" fill="#096285"/>
<path d="M72.0474 130H6.28323C5.77127 130.001 5.26693 129.876 4.81443 129.637C4.36192 129.397 3.97505 129.05 3.68775 128.627C3.40045 128.203 3.22147 127.715 3.16652 127.206C3.11157 126.697 3.18231 126.182 3.37256 125.707L9.62016 110.039C9.85287 109.458 10.2546 108.96 10.7735 108.609C11.2924 108.258 11.9046 108.072 12.5308 108.073H65.7633C66.3895 108.072 67.0017 108.258 67.5206 108.609C68.0395 108.96 68.4413 109.458 68.674 110.039L74.9398 125.707C75.0923 126.089 75.168 126.497 75.1626 126.908C75.1573 127.319 75.071 127.725 74.9087 128.103C74.7464 128.481 74.5113 128.823 74.2168 129.11C73.9222 129.396 73.5741 129.622 73.1922 129.775C72.8287 129.923 72.44 129.999 72.0474 130ZM10.8928 123.734H67.4257L63.6625 114.338H14.6499L10.8928 123.734Z" fill="#096285"/>
<path d="M57.9515 51.6858H20.3624C19.6813 51.6868 19.0184 51.4655 18.4744 51.0556C17.9305 50.6457 17.535 50.0695 17.3482 49.4145L11.0823 27.4931C10.9161 26.9087 10.9235 26.2886 11.1038 25.7083C11.284 25.1281 11.6292 24.6129 12.0973 24.2255C12.5653 23.8381 13.136 23.5953 13.7398 23.5268C14.3435 23.4583 14.9541 23.567 15.4971 23.8396L25.7636 28.9728L36.7243 15.2841C37.0166 14.9186 37.3871 14.6232 37.8087 14.4199C38.2302 14.2165 38.692 14.1102 39.16 14.1089C39.6281 14.1098 40.09 14.2158 40.5116 14.4193C40.9332 14.6227 41.3037 14.9182 41.5957 15.2841L52.5564 28.9728L62.8229 23.8396C63.3661 23.5699 63.9758 23.4634 64.5782 23.5331C65.1806 23.6029 65.7498 23.8458 66.217 24.2324C66.6842 24.619 67.0292 25.1328 67.2104 25.7115C67.3915 26.2903 67.401 26.9091 67.2376 27.4931L60.9718 49.4145C60.7847 50.0705 60.3883 50.6474 59.8431 51.0574C59.2979 51.4674 58.6337 51.6881 57.9515 51.6858ZM22.725 45.42H55.6071L59.2607 32.6325L53.0862 35.6954C52.4457 36.0162 51.7145 36.1072 51.015 35.9531C50.3155 35.799 49.6902 35.4092 49.2438 34.849L39.1539 22.2442L29.0701 34.849C28.623 35.4083 27.9977 35.7974 27.2985 35.9514C26.5993 36.1054 25.8684 36.0151 25.2277 35.6954L19.0654 32.6142L22.725 45.42Z" fill="#096285"/>
<path d="M39.154 9.40184C41.7503 9.40184 43.855 7.29717 43.855 4.70092C43.855 2.10467 41.7503 0 39.154 0C36.5578 0 34.4531 2.10467 34.4531 4.70092C34.4531 7.29717 36.5578 9.40184 39.154 9.40184Z" fill="#096285"/>
<path d="M4.70092 23.4985C7.29717 23.4985 9.40184 21.3939 9.40184 18.7976C9.40184 16.2014 7.29717 14.0967 4.70092 14.0967C2.10467 14.0967 0 16.2014 0 18.7976C0 21.3939 2.10467 23.4985 4.70092 23.4985Z" fill="#096285"/>
<path d="M73.613 23.4985C76.2093 23.4985 78.314 21.3939 78.314 18.7976C78.314 16.2014 76.2093 14.0967 73.613 14.0967C71.0168 14.0967 68.9121 16.2014 68.9121 18.7976C68.9121 21.3939 71.0168 23.4985 73.613 23.4985Z" fill="#096285"/>
<path d="M73.6186 64.2176C72.9601 64.2197 72.3177 64.0141 71.7829 63.6301C71.248 63.246 70.8479 62.703 70.6395 62.0784C70.431 61.4538 70.4249 60.7793 70.622 60.151C70.819 59.5227 71.2092 58.9726 71.737 58.5789L84.2687 49.1831C84.7858 48.794 85.4109 48.575 86.0577 48.5565C86.7046 48.5379 87.3412 48.7207 87.8797 49.0796L95.1442 53.951L121.523 27.5723C121.811 27.2788 122.154 27.045 122.533 26.8842C122.912 26.7234 123.318 26.6387 123.73 26.635C124.141 26.6313 124.549 26.7087 124.931 26.8627C125.312 27.0168 125.659 27.2444 125.953 27.5327C126.246 27.821 126.48 28.1642 126.641 28.5429C126.802 28.9215 126.886 29.3281 126.89 29.7395C126.894 30.1508 126.816 30.5589 126.662 30.9403C126.508 31.3218 126.281 31.6692 125.992 31.9626L125.95 32.0053L97.7565 60.1986C97.2439 60.7097 96.5704 61.0277 95.8501 61.0987C95.1298 61.1697 94.4071 60.9894 93.8046 60.5883L86.2538 55.5525L75.5063 63.5904C74.9624 63.9999 74.2994 64.2202 73.6186 64.2176Z" fill="#096285"/>
<path d="M75.1848 92.4109C74.3541 92.4109 73.5574 92.0813 72.9695 91.4946C72.3816 90.9078 72.0504 90.1117 72.0488 89.281V73.6133C72.0844 72.8063 72.43 72.0441 73.0137 71.4857C73.5973 70.9272 74.374 70.6155 75.1818 70.6155C75.9896 70.6155 76.7662 70.9272 77.3498 71.4857C77.9335 72.0441 78.2791 72.8063 78.3147 73.6133V89.281C78.3147 90.1111 77.9849 90.9072 77.398 91.4942C76.811 92.0812 76.0149 92.4109 75.1848 92.4109Z" fill="#096285"/>
<path d="M90.8461 92.4108C90.0154 92.4109 89.2187 92.0813 88.6307 91.4945C88.0428 90.9077 87.7117 90.1116 87.7101 89.281V70.4834C87.6914 70.0603 87.7586 69.6379 87.9077 69.2415C88.0567 68.8452 88.2845 68.4831 88.5772 68.1771C88.87 67.8712 89.2217 67.6277 89.6111 67.4613C90.0005 67.295 90.4196 67.2092 90.843 67.2092C91.2665 67.2092 91.6855 67.295 92.0749 67.4613C92.4644 67.6277 92.816 67.8712 93.1088 68.1771C93.4016 68.4831 93.6293 68.8452 93.7784 69.2415C93.9274 69.6379 93.9946 70.0603 93.9759 70.4834V89.281C93.9759 90.1111 93.6462 90.9072 93.0592 91.4941C92.4723 92.0811 91.6762 92.4108 90.8461 92.4108Z" fill="#096285"/>
<path d="M106.507 92.4109C105.677 92.4109 104.881 92.0811 104.294 91.4942C103.707 90.9072 103.377 90.1111 103.377 89.281V61.0877C103.377 60.2576 103.707 59.4615 104.294 58.8745C104.881 58.2875 105.677 57.9578 106.507 57.9578C107.337 57.9578 108.133 58.2875 108.72 58.8745C109.307 59.4615 109.637 60.2576 109.637 61.0877V89.281C109.637 90.1111 109.307 90.9072 108.72 91.4942C108.133 92.0811 107.337 92.4109 106.507 92.4109Z" fill="#096285"/>
<path d="M122.17 92.4109C121.34 92.4109 120.544 92.0812 119.957 91.4942C119.37 90.9072 119.04 90.1111 119.04 89.281V54.8036C119.021 54.3805 119.089 53.9581 119.238 53.5617C119.387 53.1653 119.615 52.8033 119.907 52.4973C120.2 52.1914 120.552 51.9479 120.941 51.7815C121.331 51.6152 121.75 51.5294 122.173 51.5294C122.597 51.5294 123.016 51.6152 123.405 51.7815C123.794 51.9479 124.146 52.1914 124.439 52.4973C124.732 52.8033 124.959 53.1653 125.108 53.5617C125.257 53.9581 125.325 54.3805 125.306 54.8036V89.2628C125.304 90.0934 124.973 90.8895 124.385 91.4763C123.797 92.0631 123.001 92.3927 122.17 92.3927V92.4109Z" fill="#096285"/>
<path d="M126.869 42.29C126.039 42.29 125.242 41.9605 124.654 41.3737C124.066 40.7869 123.735 39.9908 123.733 39.1601V29.7583H114.338C113.531 29.7227 112.769 29.3771 112.21 28.7934C111.652 28.2098 111.34 27.4332 111.34 26.6254C111.34 25.8176 111.652 25.0409 112.21 24.4573C112.769 23.8736 113.531 23.528 114.338 23.4924H126.869C127.7 23.4924 128.496 23.8222 129.083 24.4092C129.67 24.9961 129.999 25.7922 129.999 26.6223V39.1541C130 39.5656 129.92 39.9732 129.763 40.3537C129.606 40.7341 129.375 41.0799 129.085 41.3712C128.794 41.6624 128.449 41.8935 128.069 42.0512C127.688 42.2089 127.281 42.29 126.869 42.29Z" fill="#096285"/>
<path d="M126.87 92.4109H70.4831C70.0601 92.4295 69.6376 92.3623 69.2413 92.2133C68.8449 92.0642 68.4828 91.8365 68.1769 91.5437C67.8709 91.251 67.6274 90.8993 67.4611 90.5099C67.2947 90.1205 67.209 89.7014 67.209 89.2779C67.209 88.8545 67.2947 88.4354 67.4611 88.046C67.6274 87.6566 67.8709 87.3049 68.1769 87.0122C68.4828 86.7194 68.8449 86.4916 69.2413 86.3426C69.6376 86.1936 70.0601 86.1264 70.4831 86.145H126.87C127.677 86.1806 128.439 86.5262 128.997 87.1099C129.556 87.6935 129.868 88.4702 129.868 89.2779C129.868 90.0857 129.556 90.8624 128.997 91.446C128.439 92.0297 127.677 92.3753 126.87 92.4109Z" fill="#096285"/>
<path d="M56.387 67.3474H21.9216C19.0147 67.3474 16.2268 66.1926 14.1713 64.1371C12.1157 62.0816 10.9609 59.2937 10.9609 56.3867C10.9609 53.4798 12.1157 50.6919 14.1713 48.6363C16.2268 46.5808 19.0147 45.426 21.9216 45.426H56.387C59.2939 45.426 62.0818 46.5808 64.1373 48.6363C66.1929 50.6919 67.3477 53.4798 67.3477 56.3867C67.3477 59.2937 66.1929 62.0816 64.1373 64.1371C62.0818 66.1926 59.2939 67.3474 56.387 67.3474ZM21.9216 51.6858C20.6749 51.6858 19.4792 52.1811 18.5976 53.0627C17.716 53.9443 17.2207 55.14 17.2207 56.3867C17.2207 57.6335 17.716 58.8292 18.5976 59.7108C19.4792 60.5924 20.6749 61.0876 21.9216 61.0876H56.387C57.6337 61.0876 58.8294 60.5924 59.711 59.7108C60.5926 58.8292 61.0879 57.6335 61.0879 56.3867C61.0879 55.14 60.5926 53.9443 59.711 53.0627C58.8294 52.1811 57.6337 51.6858 56.387 51.6858H21.9216Z" fill="#096285"/>
</g>
<defs>
<clipPath id="clip0_499_956">
<rect width="130" height="130" fill="white"/>
</clipPath>
</defs>
</svg>
