<svg width="315" height="30" viewBox="0 0 315 30" fill="none" xmlns="http://www.w3.org/2000/svg">
<path d="M3.81042 25.035C1.35569 22.2698 0 18.7005 0 15.0028C0 11.3052 1.35569 7.73587 3.81042 4.97058C5.03349 3.6805 6.51228 2.65979 8.15226 1.97374C9.79224 1.28768 11.5573 0.951367 13.3347 0.986275C16.1517 0.919693 18.9215 1.71741 21.2716 3.2721V4.0499C18.9317 2.46153 16.1626 1.62529 13.3347 1.65297C11.6501 1.62402 9.97826 1.94964 8.42768 2.6087C6.87711 3.26777 5.48245 4.24555 4.33426 5.47856C1.97506 8.08979 0.668955 11.4837 0.668955 15.0028C0.668955 18.522 1.97506 21.9159 4.33426 24.5271C5.48831 25.7504 6.88478 26.7196 8.43451 27.3729C9.98423 28.0261 11.6531 28.349 13.3347 28.3209C16.4621 28.4065 19.5159 27.3641 21.9383 25.3843V26.2415C19.4734 28.1226 16.4336 29.0929 13.3347 28.9876C11.5605 29.0208 9.79852 28.6868 8.15952 28.0066C6.52051 27.3264 5.03982 26.3147 3.81042 25.035Z" fill="white"/>
<path d="M28.2876 28.5103V1.5249H40.2088C45.2408 1.5249 48.1457 4.19171 48.1457 8.38239C48.1457 12.2873 45.5741 14.9065 41.0501 15.224L50.2093 28.5897H49.3838L40.1929 15.224H28.986V28.5897L28.2876 28.5103ZM28.986 14.4779H40.0977C44.7328 14.4779 47.4314 12.208 47.4314 8.30301C47.4314 4.39806 44.7328 2.11222 40.0977 2.11222H28.986V14.4779Z" fill="white"/>
<path d="M57.0361 28.5103V1.5249H58.2902V28.5103H57.0361Z" fill="white"/>
<path d="M68.7663 28.1295C67.2846 27.6854 65.8891 26.993 64.6392 26.0818V24.6849C67.4475 26.7919 70.8751 27.9084 74.3857 27.8597C76.5728 27.9532 78.7321 27.341 80.5447 26.1136C81.295 25.6157 81.9088 24.9381 82.3302 24.1424C82.7516 23.3467 82.9673 22.4581 82.9575 21.5578C82.9697 20.8453 82.835 20.138 82.5619 19.4798C82.2888 18.8216 81.8831 18.2268 81.3701 17.7322C80.8042 17.2142 80.1548 16.7956 79.4494 16.4941C78.7221 16.1399 77.9685 15.8427 77.1953 15.6051C76.5286 15.367 75.608 15.0972 74.5444 14.7955C72.7123 14.3588 70.9263 13.7476 69.2108 12.9701C68.1348 12.541 67.2166 11.7917 66.5806 10.8235C65.9446 9.85527 65.6215 8.71503 65.6551 7.55711C65.6532 6.65446 65.86 5.76358 66.2592 4.95403C66.6585 4.14448 67.2395 3.43816 67.9568 2.89021C69.8595 1.4987 72.1927 0.824068 74.5444 0.985364C77.4264 0.933056 80.2595 1.73384 82.6877 3.28706V4.55697C80.2855 2.95888 77.4613 2.1133 74.5762 2.12828C69.5442 2.12828 66.8615 4.60458 66.8615 7.57297C66.8575 8.22247 66.9864 8.86594 67.2403 9.46377C67.4941 10.0616 67.8676 10.6012 68.3378 11.0493C70.1084 12.2733 72.1137 13.1165 74.2269 13.5256C74.5285 13.605 74.7666 13.6526 75.0841 13.7638L77.7668 14.5733C78.5636 14.8605 79.3427 15.1945 80.1002 15.5734C80.9179 15.8851 81.6633 16.3604 82.2908 16.9702C83.5097 18.1923 84.1946 19.8476 84.1957 21.5737C84.2349 22.6607 83.9942 23.7396 83.4966 24.7069C82.9991 25.6742 82.2614 26.4974 81.3543 27.0977C79.316 28.4199 76.9256 29.095 74.4968 29.0343C72.5513 29.0319 70.618 28.7266 68.7663 28.1295Z" fill="white"/>
<path d="M98.1 28.5103V3.11228H88.3218V1.5249H109.688V3.11228H99.8938V28.5103H98.1Z" fill="white"/>
<path d="M108.466 28.5109L120.863 1.30322H122.451L134.769 28.5109H132.896L129.276 20.574H113.926L110.307 28.5109H108.466ZM114.625 18.9866H128.689L121.673 3.60492L114.625 18.9866Z" fill="white"/>
<path d="M139.992 28.5103V1.5249H142.881V26.0023H158.12V28.5897L139.992 28.5103Z" fill="white"/>
<path d="M174.01 28.5107V1.52523H182.931C186.846 1.34523 190.677 2.6943 193.614 5.28731C194.906 6.56695 195.932 8.08997 196.632 9.76833C197.332 11.4467 197.692 13.2471 197.692 15.0656C197.692 16.884 197.332 18.6844 196.632 20.3628C195.932 22.0412 194.906 23.5642 193.614 24.8438C190.671 27.4252 186.842 28.7677 182.931 28.59L174.01 28.5107ZM176.899 25.9232H182.582C185.825 26.1018 189.014 25.0407 191.503 22.9548C193.578 20.834 194.74 17.9849 194.74 15.0179C194.74 12.051 193.578 9.20193 191.503 7.08105C189.014 4.99523 185.825 3.93405 182.582 4.11266H176.963L176.899 25.9232Z" fill="white"/>
<path d="M203.852 28.5107V1.52523H216.281C218.666 1.3829 221.017 2.14212 222.869 3.65231C223.656 4.34677 224.28 5.20605 224.697 6.16904C225.114 7.13203 225.313 8.17509 225.282 9.22402C225.348 10.9696 224.787 12.6812 223.701 14.0495C222.615 15.4178 221.076 16.3525 219.361 16.6847L227.933 28.59H222.758L214.535 17.145H208.186V28.59L203.852 28.5107ZM208.138 13.3195H216.075C219.25 13.3195 221.027 11.8908 221.027 9.30337C221.027 6.71594 219.186 5.35081 216.075 5.35081H208.138V13.3195Z" fill="white"/>
<path d="M232.028 28.5103V1.5249H252.045V6.46165H237.632V11.6682H249.251V16.5891H237.632V23.5418H252.474V28.5262L232.028 28.5103Z" fill="white"/>
<path d="M254.347 28.5109L265.855 1.30322H272.586L284.047 28.5109H276.522L274.237 22.7963H264.093L261.791 28.5109H254.347ZM266.268 17.2246H271.967L269.109 10.002L266.268 17.2246Z" fill="white"/>
<path d="M286.491 28.5103V1.5249H294.777L300.745 11.1603L306.746 1.5249H315V28.5103H306.984V13.3668L303.126 19.8115H298.602L294.586 13.3668V28.5103H286.491Z" fill="white"/>
</svg>
