<svg width="382" height="34" viewBox="0 0 382 34" fill="none" xmlns="http://www.w3.org/2000/svg">
<path d="M4.61438 29.1519C1.64173 25.8032 0 21.4808 0 17.003C0 12.5252 1.64173 8.20278 4.61438 4.85404C6.09551 3.29176 7.88631 2.0557 9.87232 1.22489C11.8583 0.394075 13.9958 -0.013193 16.1482 0.0290801C19.5595 -0.0515505 22.9138 0.914473 25.7597 2.7972V3.73911C22.9261 1.8156 19.5728 0.802924 16.1482 0.836443C14.1082 0.801386 12.0836 1.1957 10.2059 1.99382C8.32811 2.79195 6.6392 3.97604 5.24875 5.46919C2.39178 8.63137 0.810098 12.7414 0.810098 17.003C0.810098 21.2646 2.39178 25.3746 5.24875 28.5368C6.6463 30.0182 8.33741 31.192 10.2141 31.983C12.0908 32.7741 14.1119 33.1651 16.1482 33.1311C19.9354 33.2347 23.6335 31.9724 26.5671 29.5748V30.6129C23.5822 32.891 19.9009 34.066 16.1482 33.9385C13.9996 33.9786 11.8659 33.5742 9.8811 32.7505C7.89628 31.9268 6.10317 30.7016 4.61438 29.1519Z" fill="white"/>
<path d="M34.2559 33.3608V0.681641H48.6923C54.786 0.681641 58.3038 3.91112 58.3038 8.986C58.3038 13.7149 55.1897 16.8866 49.7112 17.2711L60.8028 33.4569H59.8032L48.6731 17.2711H35.1017V33.4569L34.2559 33.3608ZM35.1017 16.3676H48.5578C54.1709 16.3676 57.4388 13.6187 57.4388 8.88987C57.4388 4.16101 54.1709 1.39288 48.5578 1.39288H35.1017V16.3676Z" fill="white"/>
<path d="M69.0703 33.3608V0.681641H70.5889V33.3608H69.0703Z" fill="white"/>
<path d="M83.2753 32.8997C81.481 32.3619 79.791 31.5234 78.2773 30.42V28.7283C81.6782 31.2799 85.8291 32.6319 90.0803 32.5729C92.7289 32.6862 95.3437 31.9449 97.5388 30.4584C98.4474 29.8556 99.1907 29.0349 99.7011 28.0713C100.211 27.1077 100.473 26.0317 100.461 24.9414C100.475 24.0786 100.312 23.222 99.9816 22.425C99.6509 21.628 99.1596 20.9076 98.5384 20.3087C97.8531 19.6814 97.0667 19.1745 96.2124 18.8093C95.3317 18.3805 94.4191 18.0205 93.4828 17.7328C92.6754 17.4444 91.5605 17.1176 90.2725 16.7524C88.0539 16.2236 85.891 15.4833 83.8136 14.5418C82.5105 14.0222 81.3986 13.1147 80.6284 11.9423C79.8582 10.7698 79.467 9.38895 79.5076 7.98672C79.5053 6.89362 79.7557 5.81477 80.2392 4.83441C80.7228 3.85406 81.4263 2.99872 82.295 2.33515C84.5992 0.650047 87.4246 -0.16693 90.2725 0.0283978C93.7625 -0.0349465 97.1934 0.934791 100.134 2.81573V4.35357C97.2249 2.4183 93.8049 1.39432 90.311 1.41246C84.2173 1.41246 80.9686 4.41123 80.9686 8.00593C80.9637 8.79247 81.1198 9.5717 81.4272 10.2957C81.7347 11.0197 82.187 11.6731 82.7563 12.2158C84.9005 13.698 87.3289 14.7191 89.888 15.2146C90.2533 15.3107 90.5416 15.3684 90.9261 15.5029L94.1748 16.4833C95.1397 16.8311 96.0832 17.2355 97.0006 17.6943C97.9907 18.0718 98.8934 18.6474 99.6533 19.386C101.129 20.8659 101.959 22.8704 101.96 24.9606C102.008 26.277 101.716 27.5836 101.114 28.755C100.511 29.9264 99.6177 30.9233 98.5192 31.6502C96.0508 33.2514 93.1561 34.0689 90.2148 33.9954C87.8588 33.9925 85.5176 33.6228 83.2753 32.8997Z" fill="white"/>
<path d="M118.798 33.3608V2.60394H106.957V0.681641H132.831V2.60394H120.971V33.3608H118.798Z" fill="white"/>
<path d="M131.352 33.3613L146.365 0.413086H148.287L163.204 33.3613H160.936L156.553 23.7498H137.964L133.581 33.3613H131.352ZM138.81 21.8275H155.842L147.345 3.20042L138.81 21.8275Z" fill="white"/>
<path d="M169.529 33.3608V0.681641H173.028V30.3235H191.482V33.4569L169.529 33.3608Z" fill="white"/>
<path d="M210.725 33.361V0.681913H221.528C226.268 0.463938 230.907 2.09766 234.465 5.23776C236.03 6.7874 237.272 8.63176 238.119 10.6642C238.967 12.6967 239.403 14.877 239.403 17.0791C239.403 19.2813 238.967 21.4616 238.119 23.494C237.272 25.5265 236.03 27.3709 234.465 28.9205C230.9 32.0466 226.264 33.6723 221.528 33.4571L210.725 33.361ZM214.223 30.2277H221.105C225.032 30.444 228.894 29.1589 231.908 26.633C234.421 24.0646 235.828 20.6145 235.828 17.0215C235.828 13.4285 234.421 9.97834 231.908 7.40997C228.894 4.88405 225.032 3.59898 221.105 3.81527H214.3L214.223 30.2277Z" fill="white"/>
<path d="M246.863 33.3612V0.682119H261.915C264.803 0.509762 267.65 1.42917 269.892 3.258C270.845 4.09898 271.601 5.13956 272.106 6.30573C272.611 7.47191 272.853 8.73505 272.814 10.0053C272.894 12.1192 272.215 14.1919 270.9 15.8489C269.585 17.5059 267.721 18.6378 265.644 19.0401L276.025 33.4574H269.758L259.8 19.5976H252.111V33.4574L246.863 33.3612ZM252.053 14.9648H261.665C265.51 14.9648 267.663 13.2347 267.663 10.1014C267.663 6.96803 265.433 5.31487 261.665 5.31487H252.053V14.9648Z" fill="white"/>
<path d="M280.984 33.3608V0.681641H305.225V6.66H287.77V12.9651H301.841V18.9243H287.77V27.3439H305.744V33.38L280.984 33.3608Z" fill="white"/>
<path d="M308.012 33.3613L321.948 0.413086H330.099L343.978 33.3613H334.866L332.098 26.441H319.815L317.027 33.3613H308.012ZM322.448 19.6938H329.349L325.889 10.9473L322.448 19.6938Z" fill="white"/>
<path d="M346.938 33.3608V0.681641H356.972L364.2 12.35L371.466 0.681641H381.462V33.3608H371.754V15.022L367.083 22.8266H361.605L356.741 15.022V33.3608H346.938Z" fill="white"/>
</svg>
