<svg width="1366" height="1093" viewBox="0 0 1366 1093" fill="none" xmlns="http://www.w3.org/2000/svg">
<path fill-rule="evenodd" clip-rule="evenodd" d="M1366 705.306C1215.64 690.822 1023.32 651.236 811.053 607.546C799.174 605.101 787.21 602.64 775.207 600.172C686.806 757.931 584.676 923.526 457.507 1093H435.837C564.975 922.323 668.409 755.497 757.733 596.581C752.825 595.573 747.888 594.563 742.962 593.553C641.306 752.231 524.337 920.103 379.051 1093H355.014C502.629 918.792 621.142 749.583 723.895 589.649L710.721 586.96C593.622 746.161 459.371 916.247 293.043 1093H266.076C435.218 914.807 571.362 743.266 689.809 582.703C686.052 581.94 682.298 581.176 678.532 580.413C543.297 739.574 388.754 911.75 197.875 1093H167.479C361.679 910.148 518.497 736.381 655.359 575.731C654.176 575.492 652.995 575.254 651.814 575.015C649.973 574.643 648.131 574.272 646.283 573.9C489.614 732.236 311.122 906.285 91.6287 1093H57.4186C280.765 904.476 461.947 728.687 620.535 568.744L614.062 567.454C438.639 718.048 240.218 886.435 0 1071.7V1042.23C227.218 866.471 416.834 706.03 585.086 561.715L581.819 561.073C527.88 599.838 472.128 640.123 414.18 681.997C287.737 773.364 150.92 872.227 0 979.1V949.053C145.798 845.699 278.404 749.88 401.216 661.136C450.295 625.672 497.81 591.338 543.983 558.102C513.287 576.229 482.116 594.79 450.399 613.834C311.471 697.252 162.401 789.647 0 892.681L0 862.17C157.801 762.16 302.996 672.232 438.54 590.846C451.513 583.057 464.397 575.346 477.197 567.712C328.182 638.801 169.703 719.576 0 813.173V782.237C143.409 703.395 278.8 633.694 407.241 571.233C277.123 620.006 141.327 675.741 0 740.96L0 709.686C114.838 656.965 226.013 610.47 333.449 568.848C224.978 599.483 113.601 634.804 0 676.463L0 644.841C86.6259 613.3 171.943 585.412 255.652 560.447C171.386 577.171 85.9869 596.704 0 619.894V587.694C58.3678 572.095 116.451 558.163 174.083 545.634C116.216 552.676 58.1093 561.066 0 571.098L0 538.228C29.7929 533.14 59.5797 528.479 89.3293 524.204C59.5235 525.722 29.7337 527.611 0 529.913L0 496.212C0.799627 496.151 1.59929 496.09 2.39899 496.029C1.59925 496.017 0.79959 496.006 0 495.994V432.946C114.363 444.473 230.547 461.368 345.706 480.97C364.915 482.746 384.093 484.602 403.221 486.544C422.378 486.911 441.486 487.361 460.524 487.9C478.799 486.817 497.015 485.812 515.147 484.896C533.025 482.32 550.831 479.824 568.538 477.422C585.654 473.382 602.688 469.423 619.615 465.561C636.421 459.907 653.134 454.341 669.727 448.884C685.736 441.739 701.646 434.689 717.434 427.752C732.864 418.998 748.178 410.358 763.379 401.833C778.153 391.471 792.81 381.236 807.354 371.128C821.547 359.06 835.621 347.135 849.588 335.355C862.976 321.747 876.251 308.297 889.43 295.006C902.289 279.543 915.04 264.261 927.706 249.166C939.552 232.446 951.309 215.921 963.001 199.597C974.22 181.122 985.366 162.869 996.469 144.846C1022.56 94.9628 1048.33 46.6195 1074.33 0L1110.69 0C1107 5.48487 1103.32 10.9988 1099.65 16.5413C1104.03 10.9946 1108.42 5.48066 1112.82 0L1137.83 0C1117.57 24.9218 1097.47 50.563 1077.38 76.8856C1101.5 50.4551 1125.62 24.8142 1149.92 0L1179.21 0C1137 42.3342 1095.4 87.2121 1053.55 134.431C1104.31 86.8117 1154.67 41.9451 1205.73 0L1240.82 0C1169.35 57.264 1099.47 120.352 1028.24 188.779C1115.98 119.386 1201.6 56.3999 1288.9 0L1332.69 0C1221.77 69.2072 1114.17 149.144 1002.17 239.4C1126.74 157.976 1245.71 86.4959 1366 24.0083V51.9701C1237.49 119.303 1110.19 197.049 975.593 286.359C1111.69 214.729 1240.15 152.098 1366 95.8368V124.31C1232.26 184.372 1095.41 251.731 949.355 329.556C1097.02 269.247 1235.04 216.803 1366 167.61V196.739C1227.79 248.685 1081.67 304.355 924.618 369.159C997.445 347.359 1067.86 326.936 1135.81 307.229C1216 283.97 1292.77 261.705 1366 239.359V269.233C1294.78 290.896 1220.34 312.486 1142.69 335.006C1065.2 357.481 984.486 380.894 900.638 406.217C942.774 397.855 984.104 389.804 1024.55 381.927C1146.95 358.087 1261.31 335.814 1366 311.13V341.732C1262.58 365.92 1149.88 387.871 1029.44 411.329C980.445 420.871 930.146 430.673 878.675 440.975C906.203 438.082 933.396 435.268 960.204 432.496C1108.56 417.152 1245.44 402.995 1366 382.863V414.299C1245.69 434.192 1109.91 448.237 962.916 463.44C929.054 466.942 894.577 470.51 859.566 474.225C878.018 473.883 896.326 473.555 914.46 473.233C1082.03 470.247 1235.45 467.513 1366 454.547V486.948C1234.9 499.791 1081.89 502.518 914.93 505.493C891.465 505.911 867.708 506.337 843.705 506.795C855.112 507.5 866.482 508.203 877.77 508.903L877.793 508.904C1061.23 520.278 1228.36 530.641 1366 526.172V559.676C1227.06 564.122 1059.67 553.744 876.085 542.36L876.065 542.359C861.19 541.437 846.197 540.508 831.107 539.58L846.137 541.63C1043.54 568.558 1222.8 593.011 1366 597.774V632.453C1220.87 627.676 1040.58 603.082 842.112 576.009L842.103 576.008L822.549 573.341C1030.8 616.205 1219.44 654.901 1366 669.322V705.306Z" fill="#EF786F" fill-opacity="0.03"/>
</svg>
